<?xml version="1.0" standalone="no"?>
<!DOCTYPE svg PUBLIC "-//W3C//DTD SVG 1.1//EN" 
  "http://www.w3.org/Graphics/SVG/1.1/DTD/svg11.dtd">
<svg width="245" height="566" viewBox="0 0 245 566"
     xmlns="http://www.w3.org/2000/svg" version="1.1">
<desc>TricorderMKIX_revised_1.7.blend, (Blender 2.93.5)</desc>
<polygon stroke="black" stroke-width="1" fill="rgb(204, 204, 204)" fill-opacity="0.25" points="173.244,435.602 234.388,435.602 237.223,435.045 239.626,433.459 241.231,431.085 241.796,428.284 228.968,425.341 180.745,425.341 " />
<polygon stroke="black" stroke-width="1" fill="rgb(204, 204, 204)" fill-opacity="0.25" points="138.643,435.602 173.244,435.602 173.244,368.293 138.642,368.293 " />
<polygon stroke="black" stroke-width="1" fill="rgb(204, 204, 204)" fill-opacity="0.25" points="139.069,454.498 139.070,510.884 173.558,510.884 173.558,454.498 " />
<polygon stroke="black" stroke-width="1" fill="rgb(204, 204, 204)" fill-opacity="0.25" points="241.310,506.461 241.873,503.719 241.879,461.663 241.317,458.921 239.717,456.597 237.322,455.043 234.497,454.498 173.558,454.498 173.558,510.884 234.489,510.884 237.314,510.339 239.709,508.786 " />
<polygon stroke="black" stroke-width="1" fill="rgb(204, 204, 204)" fill-opacity="0.25" points="13.078,510.884 46.494,510.884 46.489,454.498 13.070,454.498 10.244,455.043 7.849,456.597 6.249,458.921 5.688,461.663 5.694,503.719 6.256,506.461 7.857,508.786 10.253,510.339 " />
<polygon stroke="black" stroke-width="1" fill="rgb(204, 204, 204)" fill-opacity="0.25" points="12.232,435.602 45.761,435.602 45.756,368.293 12.223,368.293 9.389,368.850 6.986,370.437 5.381,372.811 4.817,375.611 4.824,428.284 5.388,431.085 6.994,433.459 9.397,435.045 " />
<polygon stroke="black" stroke-width="1" fill="rgb(204, 204, 204)" fill-opacity="0.25" points="46.489,454.498 46.494,510.884 55.049,510.884 55.044,454.498 " />
<polygon stroke="black" stroke-width="1" fill="rgb(204, 204, 204)" fill-opacity="0.25" points="45.756,368.293 45.761,435.602 54.345,435.602 54.340,368.293 " />
<polygon stroke="black" stroke-width="1" fill="rgb(204, 204, 204)" fill-opacity="0.25" points="241.238,372.811 239.633,370.437 237.231,368.850 234.396,368.293 173.244,368.293 180.745,378.554 228.970,378.554 241.802,375.611 " />
<polygon stroke="black" stroke-width="1" fill="rgb(204, 204, 204)" fill-opacity="0.25" points="241.802,375.611 228.970,378.554 228.968,425.341 241.796,428.284 " />
<polygon stroke="black" stroke-width="1" fill="rgb(204, 204, 204)" fill-opacity="0.25" points="187.354,419.012 187.354,384.883 180.745,378.554 180.745,425.341 " />
<polygon stroke="black" stroke-width="1" fill="rgb(204, 204, 204)" fill-opacity="0.25" points="187.354,384.883 222.361,384.883 228.970,378.554 180.745,378.554 " />
<polygon stroke="black" stroke-width="1" fill="rgb(204, 204, 204)" fill-opacity="0.25" points="222.360,419.012 187.354,419.012 180.745,425.341 228.968,425.341 " />
<polygon stroke="black" stroke-width="1" fill="rgb(204, 204, 204)" fill-opacity="0.25" points="222.361,384.883 222.360,419.012 228.968,425.341 228.970,378.554 " />
<polygon stroke="black" stroke-width="1" fill="rgb(204, 204, 204)" fill-opacity="0.25" points="222.360,419.012 222.361,384.883 214.509,392.538 214.508,411.357 " />
<polygon stroke="black" stroke-width="1" fill="rgb(204, 204, 204)" fill-opacity="0.25" points="222.361,384.883 187.354,384.883 195.205,392.538 214.509,392.538 " />
<polygon stroke="black" stroke-width="1" fill="rgb(204, 204, 204)" fill-opacity="0.25" points="187.354,419.012 222.360,419.012 214.508,411.357 195.205,411.357 " />
<polygon stroke="black" stroke-width="1" fill="rgb(204, 204, 204)" fill-opacity="0.25" points="187.354,384.883 187.354,419.012 195.205,411.357 195.205,392.538 " />
<polygon stroke="black" stroke-width="1" fill="rgb(204, 204, 204)" fill-opacity="0.25" points="180.745,425.341 180.745,378.554 173.244,368.293 173.244,435.602 " />
<polygon stroke="black" stroke-width="1" fill="rgb(204, 204, 204)" fill-opacity="0.25" points="55.044,454.498 55.049,510.884 139.070,510.884 139.069,454.498 " />
<polygon stroke="black" stroke-width="1" fill="rgb(204, 204, 204)" fill-opacity="0.25" points="54.345,435.602 138.643,435.602 138.642,368.293 54.340,368.293 " />

</svg>
