<?xml version="1.0" standalone="no"?>
<!DOCTYPE svg PUBLIC "-//W3C//DTD SVG 1.1//EN" 
  "http://www.w3.org/Graphics/SVG/1.1/DTD/svg11.dtd">
<svg width="1142" height="1269" viewBox="0 0 1142 1269"
     xmlns="http://www.w3.org/2000/svg" version="1.1">
<desc>TricorderMKIX_revised_1.6.blend, (Blender 2.80 (sub 75))</desc>
<polygon stroke="black" stroke-width="1" fill="rgb(32, 32, 32)" fill-opacity="0.25" points="447.169,452.120 447.169,474.714 484.168,431.497 " />
<polygon stroke="black" stroke-width="1" fill="rgb(32, 32, 32)" fill-opacity="0.25" points="866.163,577.738 891.283,653.606 872.660,572.808 " />
<polygon stroke="black" stroke-width="1" fill="rgb(32, 32, 32)" fill-opacity="0.25" points="730.165,629.437 730.165,629.437 730.165,645.054 730.165,645.054 " />
<polygon stroke="black" stroke-width="1" fill="rgb(32, 32, 32)" fill-opacity="0.25" points="666.064,645.054 666.064,645.054 666.064,629.437 666.064,629.437 " />
<polygon stroke="black" stroke-width="1" fill="rgb(32, 32, 32)" fill-opacity="0.25" points="811.866,636.437 811.866,636.437 811.866,653.208 811.866,653.208 " />
<polygon stroke="black" stroke-width="1" fill="rgb(32, 32, 32)" fill-opacity="0.25" points="811.866,577.738 811.866,577.738 811.866,594.509 811.866,594.509 " />
<polygon stroke="black" stroke-width="1" fill="rgb(32, 32, 32)" fill-opacity="0.25" points="666.064,629.437 666.064,629.437 635.097,629.437 635.097,629.437 " />
<polygon stroke="black" stroke-width="1" fill="rgb(32, 32, 32)" fill-opacity="0.25" points="730.165,645.054 730.165,645.054 761.132,645.054 761.132,645.054 " />
<polygon stroke="black" stroke-width="1" fill="rgb(32, 32, 32)" fill-opacity="0.25" points="761.132,645.054 811.866,653.208 811.866,636.437 761.132,629.437 " />
<polygon stroke="black" stroke-width="1" fill="rgb(32, 32, 32)" fill-opacity="0.25" points="811.866,623.859 761.132,629.437 811.866,636.437 " />
<polygon stroke="black" stroke-width="1" fill="rgb(32, 32, 32)" fill-opacity="0.25" points="866.163,594.509 811.866,594.509 811.866,607.087 866.163,607.087 " />
<polygon stroke="black" stroke-width="1" fill="rgb(32, 32, 32)" fill-opacity="0.25" points="811.866,594.509 666.064,629.437 666.064,645.054 635.097,645.054 622.471,660.815 " />
<polygon stroke="black" stroke-width="1" fill="rgb(32, 32, 32)" fill-opacity="0.25" points="484.168,431.497 447.169,474.714 447.169,510.864 484.168,536.930 " />
<polygon stroke="black" stroke-width="1" fill="rgb(32, 32, 32)" fill-opacity="0.25" points="383.574,357.226 383.574,334.632 353.660,333.481 " />
<polygon stroke="black" stroke-width="1" fill="rgb(32, 32, 32)" fill-opacity="0.25" points="484.168,336.920 484.168,382.964 549.730,382.964 549.730,336.920 " />
<polygon stroke="black" stroke-width="1" fill="rgb(32, 32, 32)" fill-opacity="0.25" points="360.533,660.815 622.471,660.815 570.995,645.054 540.029,645.054 " />
<polygon stroke="black" stroke-width="1" fill="rgb(32, 32, 32)" fill-opacity="0.25" points="761.132,629.437 761.132,629.437 730.165,629.437 730.165,629.437 " />
<polygon stroke="black" stroke-width="1" fill="rgb(32, 32, 32)" fill-opacity="0.25" points="811.866,577.738 622.471,572.808 666.064,629.437 811.866,594.509 " />
<polygon stroke="black" stroke-width="1" fill="rgb(32, 32, 32)" fill-opacity="0.25" points="866.163,577.738 872.660,572.808 622.471,572.808 811.866,577.738 " />
<polygon stroke="black" stroke-width="1" fill="rgb(32, 32, 32)" fill-opacity="0.25" points="622.471,336.920 549.730,336.920 622.471,333.481 " />
<polygon stroke="black" stroke-width="1" fill="rgb(32, 32, 32)" fill-opacity="0.25" points="666.064,629.437 730.165,629.437 730.165,645.054 666.064,645.054 " />
<polygon stroke="black" stroke-width="1" fill="rgb(32, 32, 32)" fill-opacity="0.25" points="761.132,629.437 811.866,636.437 811.866,653.208 761.132,645.054 " />
<polygon stroke="black" stroke-width="1" fill="rgb(32, 32, 32)" fill-opacity="0.25" points="761.132,645.054 811.866,653.208 730.165,645.054 " />
<polygon stroke="black" stroke-width="1" fill="rgb(32, 32, 32)" fill-opacity="0.25" points="872.660,560.942 872.660,336.920 862.791,336.920 862.791,560.942 " />
<polygon stroke="black" stroke-width="1" fill="rgb(32, 32, 32)" fill-opacity="0.25" points="622.471,333.481 549.730,336.920 484.168,336.920 447.169,334.632 " />
<polygon stroke="black" stroke-width="1" fill="rgb(32, 32, 32)" fill-opacity="0.25" points="635.097,629.437 666.064,629.437 622.471,572.808 " />
<polygon stroke="black" stroke-width="1" fill="rgb(32, 32, 32)" fill-opacity="0.25" points="635.097,645.054 635.097,629.437 622.471,572.808 622.471,660.815 " />
<polygon stroke="black" stroke-width="1" fill="rgb(32, 32, 32)" fill-opacity="0.25" points="622.471,660.815 622.471,572.808 570.995,629.437 " />
<polygon stroke="black" stroke-width="1" fill="rgb(32, 32, 32)" fill-opacity="0.25" points="570.995,629.437 622.471,572.808 484.168,572.808 540.029,629.437 " />
<polygon stroke="black" stroke-width="1" fill="rgb(32, 32, 32)" fill-opacity="0.25" points="540.029,629.437 484.168,572.808 353.660,653.606 540.029,645.054 " />
<polygon stroke="black" stroke-width="1" fill="rgb(32, 32, 32)" fill-opacity="0.25" points="447.169,533.458 383.574,533.458 353.660,653.606 484.168,572.808 484.168,560.942 " />
<polygon stroke="black" stroke-width="1" fill="rgb(32, 32, 32)" fill-opacity="0.25" points="447.169,533.458 484.168,560.942 484.168,536.930 447.169,510.864 " />
<polygon stroke="black" stroke-width="1" fill="rgb(32, 32, 32)" fill-opacity="0.25" points="872.660,336.920 872.660,560.942 891.283,333.481 " />
<polygon stroke="black" stroke-width="1" fill="rgb(32, 32, 32)" fill-opacity="0.25" points="891.283,333.481 872.660,560.942 872.660,572.808 891.283,653.606 " />
<polygon stroke="black" stroke-width="1" fill="rgb(32, 32, 32)" fill-opacity="0.25" points="484.168,536.930 484.168,560.942 549.730,560.942 549.730,536.930 " />
<polygon stroke="black" stroke-width="1" fill="rgb(32, 32, 32)" fill-opacity="0.25" points="484.168,382.964 484.168,431.497 549.730,431.497 549.730,382.964 " />
<polygon stroke="black" stroke-width="1" fill="rgb(32, 32, 32)" fill-opacity="0.25" points="484.168,431.497 484.168,536.930 549.730,536.930 549.730,431.497 " />
<polygon stroke="black" stroke-width="1" fill="rgb(32, 32, 32)" fill-opacity="0.25" points="447.169,357.226 484.168,382.964 484.168,336.920 447.169,334.632 " />
<polygon stroke="black" stroke-width="1" fill="rgb(32, 32, 32)" fill-opacity="0.25" points="447.169,357.226 383.574,357.226 383.574,393.376 447.169,393.376 " />
<polygon stroke="black" stroke-width="1" fill="rgb(32, 32, 32)" fill-opacity="0.25" points="447.169,393.376 484.168,382.964 447.169,357.226 " />
<polygon stroke="black" stroke-width="1" fill="rgb(32, 32, 32)" fill-opacity="0.25" points="353.660,333.481 383.574,393.376 383.574,357.226 " />
<polygon stroke="black" stroke-width="1" fill="rgb(32, 32, 32)" fill-opacity="0.25" points="383.574,393.376 353.660,333.481 383.574,415.970 " />
<polygon stroke="black" stroke-width="1" fill="rgb(32, 32, 32)" fill-opacity="0.25" points="622.471,333.481 891.283,333.481 862.791,336.920 622.471,336.920 " />
<polygon stroke="black" stroke-width="1" fill="rgb(32, 32, 32)" fill-opacity="0.25" points="872.660,572.808 862.791,560.942 622.471,560.942 622.471,572.808 " />
<polygon stroke="black" stroke-width="1" fill="rgb(32, 32, 32)" fill-opacity="0.25" points="484.168,572.808 622.471,572.808 622.471,560.942 549.730,560.942 " />
<polygon stroke="black" stroke-width="1" fill="rgb(32, 32, 32)" fill-opacity="0.25" points="549.730,560.942 484.168,560.942 484.168,572.808 " />
<polygon stroke="black" stroke-width="1" fill="rgb(32, 32, 32)" fill-opacity="0.25" points="872.660,572.808 872.660,560.942 862.791,560.942 " />
<polygon stroke="black" stroke-width="1" fill="rgb(32, 32, 32)" fill-opacity="0.25" points="811.866,623.859 811.866,636.437 761.132,629.437 " />
<polygon stroke="black" stroke-width="1" fill="rgb(32, 32, 32)" fill-opacity="0.25" points="811.866,607.087 811.866,623.859 761.132,629.437 " />
<polygon stroke="black" stroke-width="1" fill="rgb(32, 32, 32)" fill-opacity="0.25" points="811.866,607.087 761.132,629.437 811.866,594.509 " />
<polygon stroke="black" stroke-width="1" fill="rgb(32, 32, 32)" fill-opacity="0.25" points="811.866,594.509 761.132,629.437 811.866,577.738 " />
<polygon stroke="black" stroke-width="1" fill="rgb(32, 32, 32)" fill-opacity="0.25" points="484.168,431.497 447.169,415.970 447.169,452.120 " />
<polygon stroke="black" stroke-width="1" fill="rgb(32, 32, 32)" fill-opacity="0.25" points="447.169,415.970 484.168,431.497 484.168,382.964 447.169,393.376 " />
<polygon stroke="black" stroke-width="1" fill="rgb(32, 32, 32)" fill-opacity="0.25" points="447.169,510.864 447.169,474.714 383.574,474.714 383.574,510.864 " />
<polygon stroke="black" stroke-width="1" fill="rgb(32, 32, 32)" fill-opacity="0.25" points="447.169,415.970 383.574,415.970 383.574,452.120 447.169,452.120 " />
<polygon stroke="black" stroke-width="1" fill="rgb(32, 32, 32)" fill-opacity="0.25" points="353.660,653.606 383.574,474.714 383.574,452.120 353.660,333.481 " />
<polygon stroke="black" stroke-width="1" fill="rgb(32, 32, 32)" fill-opacity="0.25" points="353.660,333.481 383.574,452.120 383.574,415.970 " />
<polygon stroke="black" stroke-width="1" fill="rgb(32, 32, 32)" fill-opacity="0.25" points="383.574,474.714 353.660,653.606 383.574,510.864 " />
<polygon stroke="black" stroke-width="1" fill="rgb(32, 32, 32)" fill-opacity="0.25" points="383.574,533.458 383.574,510.864 353.660,653.606 " />
<polygon stroke="black" stroke-width="1" fill="rgb(32, 32, 32)" fill-opacity="0.25" points="622.471,333.481 353.660,333.481 383.574,334.632 447.169,334.632 " />
<polygon stroke="black" stroke-width="1" fill="rgb(32, 32, 32)" fill-opacity="0.25" points="570.995,645.054 622.471,660.815 570.995,629.437 " />
<polygon stroke="black" stroke-width="1" fill="rgb(32, 32, 32)" fill-opacity="0.25" points="355.673,658.704 360.533,660.815 540.029,645.054 353.660,653.606 " />
<polygon stroke="black" stroke-width="1" fill="rgb(32, 32, 32)" fill-opacity="0.25" points="866.163,636.437 866.163,623.859 811.866,623.859 811.866,636.437 " />
<polygon stroke="black" stroke-width="1" fill="rgb(32, 32, 32)" fill-opacity="0.25" points="866.163,607.087 866.163,623.859 891.283,653.606 " />
<polygon stroke="black" stroke-width="1" fill="rgb(32, 32, 32)" fill-opacity="0.25" points="866.163,623.859 866.163,636.437 891.283,653.606 " />
<polygon stroke="black" stroke-width="1" fill="rgb(32, 32, 32)" fill-opacity="0.25" points="866.163,636.437 866.163,653.208 891.283,653.606 " />
<polygon stroke="black" stroke-width="1" fill="rgb(32, 32, 32)" fill-opacity="0.25" points="884.410,660.815 866.163,653.208 811.866,653.208 622.471,660.815 " />
<polygon stroke="black" stroke-width="1" fill="rgb(32, 32, 32)" fill-opacity="0.25" points="761.132,645.054 730.165,645.054 622.471,660.815 811.866,653.208 " />
<polygon stroke="black" stroke-width="1" fill="rgb(32, 32, 32)" fill-opacity="0.25" points="889.270,658.704 891.283,653.606 866.163,653.208 884.410,660.815 " />
<polygon stroke="black" stroke-width="1" fill="rgb(32, 32, 32)" fill-opacity="0.25" points="730.165,645.054 730.165,629.437 622.471,660.815 " />
<polygon stroke="black" stroke-width="1" fill="rgb(32, 32, 32)" fill-opacity="0.25" points="811.866,623.859 811.866,607.087 761.132,629.437 " />
<polygon stroke="black" stroke-width="1" fill="rgb(32, 32, 32)" fill-opacity="0.25" points="811.866,607.087 811.866,594.509 761.132,629.437 " />
<polygon stroke="black" stroke-width="1" fill="rgb(32, 32, 32)" fill-opacity="0.25" points="761.132,629.437 811.866,594.509 730.165,629.437 " />
<polygon stroke="black" stroke-width="1" fill="rgb(32, 32, 32)" fill-opacity="0.25" points="730.165,629.437 811.866,594.509 666.064,645.054 " />
<polygon stroke="black" stroke-width="1" fill="rgb(32, 32, 32)" fill-opacity="0.25" points="866.163,607.087 891.283,653.606 866.163,594.509 " />
<polygon stroke="black" stroke-width="1" fill="rgb(32, 32, 32)" fill-opacity="0.25" points="866.163,594.509 891.283,653.606 866.163,577.738 " />

</svg>
