<?xml version="1.0" standalone="no"?>
<!DOCTYPE svg PUBLIC "-//W3C//DTD SVG 1.1//EN" 
  "http://www.w3.org/Graphics/SVG/1.1/DTD/svg11.dtd">
<svg width="1142" height="1269" viewBox="0 0 1142 1269"
     xmlns="http://www.w3.org/2000/svg" version="1.1">
<desc>TricorderMKIX_revised_1.6.blend, (Blender 2.80 (sub 75))</desc>
<polygon stroke="black" stroke-width="1" fill="rgb(32, 32, 32)" fill-opacity="0.25" points="249.054,233.566 248.609,198.142 248.609,198.255 248.653,233.580 " />
<polygon stroke="black" stroke-width="1" fill="rgb(32, 32, 32)" fill-opacity="0.25" points="237.451,439.899 397.185,439.899 402.287,438.532 406.022,434.796 407.389,429.692 407.389,367.838 406.022,362.734 395.474,365.102 395.474,432.427 348.720,432.427 227.246,429.692 228.614,434.796 232.349,438.532 " />
<polygon stroke="black" stroke-width="1" fill="rgb(32, 32, 32)" fill-opacity="0.25" points="260.258,775.517 260.258,806.654 311.247,747.095 " />
<polygon stroke="black" stroke-width="1" fill="rgb(32, 32, 32)" fill-opacity="0.25" points="160.567,450.196 195.428,524.385 236.560,524.385 501.844,450.196 " />
<polygon stroke="black" stroke-width="1" fill="rgb(32, 32, 32)" fill-opacity="0.25" points="837.684,948.634 872.303,1053.189 846.638,941.840 " />
<polygon stroke="black" stroke-width="1" fill="rgb(32, 32, 32)" fill-opacity="0.25" points="501.844,450.196 501.844,612.017 872.303,612.017 854.259,460.123 850.307,453.198 843.121,450.196 " />
<polygon stroke="black" stroke-width="1" fill="rgb(32, 32, 32)" fill-opacity="0.25" points="249.112,293.219 249.054,233.566 248.653,233.580 248.712,293.265 " />
<polygon stroke="black" stroke-width="1" fill="rgb(32, 32, 32)" fill-opacity="0.25" points="249.112,293.219 250.409,299.551 250.807,299.501 " />
<polygon stroke="black" stroke-width="1" fill="rgb(32, 32, 32)" fill-opacity="0.25" points="762.885,439.899 767.987,438.532 771.722,434.796 773.089,429.692 773.089,367.838 759.663,375.388 759.663,422.141 669.897,422.141 644.721,421.844 644.549,423.592 643.751,426.223 642.455,428.648 640.710,430.773 638.585,432.517 636.160,433.814 633.529,434.612 630.792,434.881 628.056,434.612 625.425,433.814 623.000,432.517 620.875,430.773 619.130,428.648 617.834,426.223 617.036,423.592 616.766,420.855 592.946,429.692 594.314,434.796 598.049,438.532 603.151,439.899 " />
<polygon stroke="black" stroke-width="1" fill="rgb(32, 32, 32)" fill-opacity="0.25" points="650.262,1019.881 650.262,1019.881 650.262,1041.404 650.262,1041.404 " />
<polygon stroke="black" stroke-width="1" fill="rgb(32, 32, 32)" fill-opacity="0.25" points="561.922,1041.404 561.922,1041.404 561.922,1019.881 561.922,1019.881 " />
<polygon stroke="black" stroke-width="1" fill="rgb(32, 32, 32)" fill-opacity="0.25" points="762.856,1029.528 762.856,1029.528 762.856,1052.641 762.856,1052.641 " />
<polygon stroke="black" stroke-width="1" fill="rgb(32, 32, 32)" fill-opacity="0.25" points="501.844,612.017 501.844,450.196 236.560,524.385 236.560,549.187 " />
<polygon stroke="black" stroke-width="1" fill="rgb(32, 32, 32)" fill-opacity="0.25" points="762.856,948.634 762.856,948.634 762.856,971.747 762.856,971.747 " />
<polygon stroke="black" stroke-width="1" fill="rgb(32, 32, 32)" fill-opacity="0.25" points="561.922,1019.881 561.922,1019.881 519.246,1019.881 519.246,1019.881 " />
<polygon stroke="black" stroke-width="1" fill="rgb(32, 32, 32)" fill-opacity="0.25" points="650.262,1041.404 650.262,1041.404 692.938,1041.404 692.938,1041.404 " />
<polygon stroke="black" stroke-width="1" fill="rgb(32, 32, 32)" fill-opacity="0.25" points="592.946,429.692 616.766,420.855 617.036,418.119 617.834,415.488 619.130,413.063 620.875,410.937 623.000,409.193 625.425,407.897 628.056,407.099 630.792,406.829 633.529,407.099 636.160,407.897 638.585,409.193 640.710,410.937 642.455,413.063 643.751,415.488 644.549,418.119 644.818,420.855 644.721,421.844 669.897,422.141 669.897,375.388 644.818,376.167 644.549,378.903 643.751,381.535 642.455,383.959 640.710,386.085 638.585,387.829 636.160,389.125 633.529,389.923 630.792,390.193 628.056,389.923 625.425,389.125 623.000,387.829 620.875,386.085 619.130,383.959 617.834,381.535 617.036,378.903 616.766,376.167 592.946,367.838 " />
<polygon stroke="black" stroke-width="1" fill="rgb(32, 32, 32)" fill-opacity="0.25" points="592.946,367.838 616.766,376.167 617.036,373.431 617.834,370.799 619.130,368.375 620.875,366.249 623.000,364.505 625.425,363.209 628.056,362.410 630.792,362.141 633.529,362.410 636.160,363.209 638.585,364.505 640.710,366.249 642.455,368.375 643.751,370.800 644.549,373.431 644.818,376.167 669.897,375.388 759.663,375.388 773.089,367.838 771.722,362.734 767.987,358.998 762.885,357.630 603.151,357.630 598.049,358.998 594.314,362.734 " />
<polygon stroke="black" stroke-width="1" fill="rgb(32, 32, 32)" fill-opacity="0.25" points="519.246,1041.404 501.847,1063.124 561.922,1041.404 " />
<polygon stroke="black" stroke-width="1" fill="rgb(32, 32, 32)" fill-opacity="0.25" points="692.938,1041.404 650.262,1041.404 762.856,1052.641 " />
<polygon stroke="black" stroke-width="1" fill="rgb(32, 32, 32)" fill-opacity="0.25" points="837.684,971.747 762.856,971.747 762.856,989.081 837.684,989.081 " />
<polygon stroke="black" stroke-width="1" fill="rgb(32, 32, 32)" fill-opacity="0.25" points="762.856,1052.641 650.262,1041.404 561.922,1041.404 501.847,1063.124 " />
<polygon stroke="black" stroke-width="1" fill="rgb(32, 32, 32)" fill-opacity="0.25" points="311.247,747.095 260.258,806.654 260.258,856.473 311.247,892.395 " />
<polygon stroke="black" stroke-width="1" fill="rgb(32, 32, 32)" fill-opacity="0.25" points="172.616,644.741 172.616,613.604 131.391,612.018 " />
<polygon stroke="black" stroke-width="1" fill="rgb(32, 32, 32)" fill-opacity="0.25" points="311.247,616.757 311.247,680.212 401.600,680.212 401.600,616.757 " />
<polygon stroke="black" stroke-width="1" fill="rgb(32, 32, 32)" fill-opacity="0.25" points="140.864,1063.124 501.847,1063.124 430.907,1041.404 388.231,1041.404 " />
<polygon stroke="black" stroke-width="1" fill="rgb(32, 32, 32)" fill-opacity="0.25" points="227.246,429.692 348.720,432.427 348.720,365.102 292.648,366.293 292.648,388.735 245.895,388.735 227.246,367.838 " />
<polygon stroke="black" stroke-width="1" fill="rgb(32, 32, 32)" fill-opacity="0.25" points="227.246,367.838 245.895,388.735 245.895,366.293 292.648,366.293 348.720,365.102 395.474,365.102 406.022,362.734 402.287,358.997 397.185,357.630 237.451,357.630 232.349,358.997 228.614,362.734 " />
<polygon stroke="black" stroke-width="1" fill="rgb(32, 32, 32)" fill-opacity="0.25" points="692.938,1019.881 692.938,1019.881 650.262,1019.881 650.262,1019.881 " />
<polygon stroke="black" stroke-width="1" fill="rgb(32, 32, 32)" fill-opacity="0.25" points="561.922,1041.404 650.262,1041.404 650.262,1019.881 561.922,1019.881 " />
<polygon stroke="black" stroke-width="1" fill="rgb(32, 32, 32)" fill-opacity="0.25" points="837.684,948.634 846.638,941.840 501.847,941.840 762.856,948.634 " />
<polygon stroke="black" stroke-width="1" fill="rgb(32, 32, 32)" fill-opacity="0.25" points="249.112,293.219 248.712,293.265 250.409,299.551 " />
<polygon stroke="black" stroke-width="1" fill="rgb(32, 32, 32)" fill-opacity="0.25" points="727.296,112.990 749.812,102.119 743.501,100.412 " />
<polygon stroke="black" stroke-width="1" fill="rgb(32, 32, 32)" fill-opacity="0.25" points="756.022,198.142 712.557,193.262 712.557,213.680 " />
<polygon stroke="black" stroke-width="1" fill="rgb(32, 32, 32)" fill-opacity="0.25" points="756.022,198.142 712.557,213.680 723.633,236.700 755.571,233.566 " />
<polygon stroke="black" stroke-width="1" fill="rgb(32, 32, 32)" fill-opacity="0.25" points="249.054,233.566 327.196,259.388 371.560,259.389 406.418,237.456 " />
<polygon stroke="black" stroke-width="1" fill="rgb(32, 32, 32)" fill-opacity="0.25" points="248.517,112.987 248.581,172.494 272.299,165.088 272.299,117.319 " />
<polygon stroke="black" stroke-width="1" fill="rgb(32, 32, 32)" fill-opacity="0.25" points="327.196,280.105 255.035,304.040 261.730,305.784 " />
<polygon stroke="black" stroke-width="1" fill="rgb(32, 32, 32)" fill-opacity="0.25" points="327.196,259.388 249.054,233.566 249.112,293.219 327.196,280.105 " />
<polygon stroke="black" stroke-width="1" fill="rgb(32, 32, 32)" fill-opacity="0.25" points="248.609,198.142 249.054,233.566 287.779,213.680 287.779,193.262 " />
<polygon stroke="black" stroke-width="1" fill="rgb(32, 32, 32)" fill-opacity="0.25" points="756.022,198.142 756.050,172.494 727.296,158.896 712.557,193.262 " />
<polygon stroke="black" stroke-width="1" fill="rgb(32, 32, 32)" fill-opacity="0.25" points="434.470,237.454 585.815,236.725 712.557,213.680 " />
<polygon stroke="black" stroke-width="1" fill="rgb(32, 32, 32)" fill-opacity="0.25" points="434.470,237.454 712.557,213.680 434.200,234.729 " />
<polygon stroke="black" stroke-width="1" fill="rgb(32, 32, 32)" fill-opacity="0.25" points="434.200,234.729 712.557,213.680 433.402,232.109 " />
<polygon stroke="black" stroke-width="1" fill="rgb(32, 32, 32)" fill-opacity="0.25" points="433.402,232.109 712.557,213.680 432.106,229.693 " />
<polygon stroke="black" stroke-width="1" fill="rgb(32, 32, 32)" fill-opacity="0.25" points="432.106,229.693 712.557,213.680 430.362,227.577 " />
<polygon stroke="black" stroke-width="1" fill="rgb(32, 32, 32)" fill-opacity="0.25" points="430.362,227.577 712.557,213.680 428.236,225.840 " />
<polygon stroke="black" stroke-width="1" fill="rgb(32, 32, 32)" fill-opacity="0.25" points="428.236,225.840 712.557,213.680 425.811,224.549 " />
<polygon stroke="black" stroke-width="1" fill="rgb(32, 32, 32)" fill-opacity="0.25" points="425.811,224.549 712.557,213.680 423.180,223.754 " />
<polygon stroke="black" stroke-width="1" fill="rgb(32, 32, 32)" fill-opacity="0.25" points="423.180,223.754 712.557,213.680 420.444,223.486 " />
<polygon stroke="black" stroke-width="1" fill="rgb(32, 32, 32)" fill-opacity="0.25" points="712.557,213.680 287.779,213.680 420.444,223.486 " />
<polygon stroke="black" stroke-width="1" fill="rgb(32, 32, 32)" fill-opacity="0.25" points="420.444,223.486 287.779,213.680 417.707,223.755 " />
<polygon stroke="black" stroke-width="1" fill="rgb(32, 32, 32)" fill-opacity="0.25" points="417.707,223.755 287.779,213.680 415.076,224.549 " />
<polygon stroke="black" stroke-width="1" fill="rgb(32, 32, 32)" fill-opacity="0.25" points="415.076,224.549 287.779,213.680 412.651,225.841 " />
<polygon stroke="black" stroke-width="1" fill="rgb(32, 32, 32)" fill-opacity="0.25" points="412.651,225.841 287.779,213.680 410.526,227.578 " />
<polygon stroke="black" stroke-width="1" fill="rgb(32, 32, 32)" fill-opacity="0.25" points="410.526,227.578 287.779,213.680 408.782,229.695 " />
<polygon stroke="black" stroke-width="1" fill="rgb(32, 32, 32)" fill-opacity="0.25" points="407.485,232.110 408.782,229.695 287.779,213.680 " />
<polygon stroke="black" stroke-width="1" fill="rgb(32, 32, 32)" fill-opacity="0.25" points="406.687,234.731 407.485,232.110 287.779,213.680 " />
<polygon stroke="black" stroke-width="1" fill="rgb(32, 32, 32)" fill-opacity="0.25" points="406.418,237.456 406.687,234.731 287.779,213.680 " />
<polygon stroke="black" stroke-width="1" fill="rgb(32, 32, 32)" fill-opacity="0.25" points="249.054,233.566 406.418,237.456 287.779,213.680 " />
<polygon stroke="black" stroke-width="1" fill="rgb(32, 32, 32)" fill-opacity="0.25" points="755.919,293.153 755.571,233.566 723.633,236.700 723.633,286.277 " />
<polygon stroke="black" stroke-width="1" fill="rgb(32, 32, 32)" fill-opacity="0.25" points="417.707,265.826 420.444,265.557 420.444,251.424 417.707,251.156 " />
<polygon stroke="black" stroke-width="1" fill="rgb(32, 32, 32)" fill-opacity="0.25" points="420.444,265.557 423.180,265.826 423.180,251.156 420.444,251.424 " />
<polygon stroke="black" stroke-width="1" fill="rgb(32, 32, 32)" fill-opacity="0.25" points="423.180,265.826 425.811,266.620 425.811,250.361 423.180,251.156 " />
<polygon stroke="black" stroke-width="1" fill="rgb(32, 32, 32)" fill-opacity="0.25" points="425.811,266.620 428.236,267.911 428.236,249.070 425.811,250.361 " />
<polygon stroke="black" stroke-width="1" fill="rgb(32, 32, 32)" fill-opacity="0.25" points="428.236,267.911 430.362,269.648 430.362,247.332 428.236,249.070 " />
<polygon stroke="black" stroke-width="1" fill="rgb(32, 32, 32)" fill-opacity="0.25" points="430.362,269.648 432.106,271.765 432.106,245.215 430.362,247.332 " />
<polygon stroke="black" stroke-width="1" fill="rgb(32, 32, 32)" fill-opacity="0.25" points="415.076,266.621 417.707,265.826 417.707,251.156 415.076,250.361 " />
<polygon stroke="black" stroke-width="1" fill="rgb(32, 32, 32)" fill-opacity="0.25" points="412.651,267.912 415.076,266.621 415.076,250.361 412.651,249.071 " />
<polygon stroke="black" stroke-width="1" fill="rgb(32, 32, 32)" fill-opacity="0.25" points="410.526,269.649 412.651,267.912 412.651,249.071 410.526,247.333 " />
<polygon stroke="black" stroke-width="1" fill="rgb(32, 32, 32)" fill-opacity="0.25" points="408.782,271.765 410.526,269.649 410.526,247.333 408.782,245.217 " />
<polygon stroke="black" stroke-width="1" fill="rgb(32, 32, 32)" fill-opacity="0.25" points="407.485,274.180 408.782,271.765 408.782,245.217 407.485,242.802 " />
<polygon stroke="black" stroke-width="1" fill="rgb(32, 32, 32)" fill-opacity="0.25" points="406.687,276.800 407.485,274.180 407.485,242.802 406.687,240.181 " />
<polygon stroke="black" stroke-width="1" fill="rgb(32, 32, 32)" fill-opacity="0.25" points="406.418,237.456 371.560,259.389 371.560,280.105 406.418,279.525 406.687,276.800 406.687,240.181 " />
<polygon stroke="black" stroke-width="1" fill="rgb(32, 32, 32)" fill-opacity="0.25" points="248.581,172.494 248.609,198.142 287.779,193.262 272.299,165.088 " />
<polygon stroke="black" stroke-width="1" fill="rgb(32, 32, 32)" fill-opacity="0.25" points="272.299,165.088 287.779,193.262 348.276,165.081 " />
<polygon stroke="black" stroke-width="1" fill="rgb(32, 32, 32)" fill-opacity="0.25" points="287.779,193.262 452.887,158.884 348.276,165.081 " />
<polygon stroke="black" stroke-width="1" fill="rgb(32, 32, 32)" fill-opacity="0.25" points="348.276,117.311 348.276,165.081 452.887,158.884 452.673,112.991 " />
<polygon stroke="black" stroke-width="1" fill="rgb(32, 32, 32)" fill-opacity="0.25" points="261.510,100.606 272.299,117.319 348.276,117.311 452.673,112.991 " />
<polygon stroke="black" stroke-width="1" fill="rgb(32, 32, 32)" fill-opacity="0.25" points="248.517,112.987 272.299,117.319 250.600,106.888 " />
<polygon stroke="black" stroke-width="1" fill="rgb(32, 32, 32)" fill-opacity="0.25" points="250.600,106.888 272.299,117.319 255.209,102.289 " />
<polygon stroke="black" stroke-width="1" fill="rgb(32, 32, 32)" fill-opacity="0.25" points="255.209,102.289 272.299,117.319 261.510,100.606 " />
<polygon stroke="black" stroke-width="1" fill="rgb(32, 32, 32)" fill-opacity="0.25" points="727.296,112.990 754.429,106.721 749.812,102.119 " />
<polygon stroke="black" stroke-width="1" fill="rgb(32, 32, 32)" fill-opacity="0.25" points="727.296,112.990 756.113,112.987 754.429,106.721 " />
<polygon stroke="black" stroke-width="1" fill="rgb(32, 32, 32)" fill-opacity="0.25" points="727.296,158.896 756.050,172.494 756.113,112.987 727.296,112.990 " />
<polygon stroke="black" stroke-width="1" fill="rgb(32, 32, 32)" fill-opacity="0.25" points="755.919,293.153 723.633,286.277 753.817,299.501 " />
<polygon stroke="black" stroke-width="1" fill="rgb(32, 32, 32)" fill-opacity="0.25" points="753.817,299.501 723.633,286.277 749.596,304.040 " />
<polygon stroke="black" stroke-width="1" fill="rgb(32, 32, 32)" fill-opacity="0.25" points="749.596,304.040 723.633,286.277 743.282,305.724 " />
<polygon stroke="black" stroke-width="1" fill="rgb(32, 32, 32)" fill-opacity="0.25" points="249.112,293.219 250.807,299.501 327.196,280.105 " />
<polygon stroke="black" stroke-width="1" fill="rgb(32, 32, 32)" fill-opacity="0.25" points="250.807,299.501 255.035,304.040 327.196,280.105 " />
<polygon stroke="black" stroke-width="1" fill="rgb(32, 32, 32)" fill-opacity="0.25" points="432.106,271.765 433.402,274.180 433.402,242.800 432.106,245.215 " />
<polygon stroke="black" stroke-width="1" fill="rgb(32, 32, 32)" fill-opacity="0.25" points="434.200,240.180 433.402,242.800 433.402,274.180 434.200,276.801 " />
<polygon stroke="black" stroke-width="1" fill="rgb(32, 32, 32)" fill-opacity="0.25" points="434.470,237.454 434.200,240.180 434.200,276.801 434.470,279.525 " />
<polygon stroke="black" stroke-width="1" fill="rgb(32, 32, 32)" fill-opacity="0.25" points="484.862,270.726 434.470,237.454 434.470,279.525 " />
<polygon stroke="black" stroke-width="1" fill="rgb(32, 32, 32)" fill-opacity="0.25" points="327.196,280.105 261.730,305.784 371.560,280.105 " />
<polygon stroke="black" stroke-width="1" fill="rgb(32, 32, 32)" fill-opacity="0.25" points="406.687,282.250 406.418,279.525 371.560,280.105 261.730,305.784 " />
<polygon stroke="black" stroke-width="1" fill="rgb(32, 32, 32)" fill-opacity="0.25" points="407.485,284.870 406.687,282.250 261.730,305.784 " />
<polygon stroke="black" stroke-width="1" fill="rgb(32, 32, 32)" fill-opacity="0.25" points="407.485,284.870 261.730,305.784 408.782,287.285 " />
<polygon stroke="black" stroke-width="1" fill="rgb(32, 32, 32)" fill-opacity="0.25" points="410.526,289.402 408.782,287.285 261.730,305.784 " />
<polygon stroke="black" stroke-width="1" fill="rgb(32, 32, 32)" fill-opacity="0.25" points="412.651,291.139 410.526,289.402 261.730,305.784 " />
<polygon stroke="black" stroke-width="1" fill="rgb(32, 32, 32)" fill-opacity="0.25" points="412.651,291.139 261.730,305.784 415.076,292.429 " />
<polygon stroke="black" stroke-width="1" fill="rgb(32, 32, 32)" fill-opacity="0.25" points="417.707,293.225 415.076,292.429 261.730,305.784 " />
<polygon stroke="black" stroke-width="1" fill="rgb(32, 32, 32)" fill-opacity="0.25" points="420.444,293.493 417.707,293.225 261.730,305.784 " />
<polygon stroke="black" stroke-width="1" fill="rgb(32, 32, 32)" fill-opacity="0.25" points="261.730,305.784 500.168,305.783 420.444,293.493 " />
<polygon stroke="black" stroke-width="1" fill="rgb(32, 32, 32)" fill-opacity="0.25" points="498.888,284.694 500.168,305.783 547.544,284.697 " />
<polygon stroke="black" stroke-width="1" fill="rgb(32, 32, 32)" fill-opacity="0.25" points="498.888,284.694 547.544,284.697 544.808,284.428 501.625,284.426 " />
<polygon stroke="black" stroke-width="1" fill="rgb(32, 32, 32)" fill-opacity="0.25" points="504.256,283.631 501.625,284.426 544.808,284.428 542.176,283.633 " />
<polygon stroke="black" stroke-width="1" fill="rgb(32, 32, 32)" fill-opacity="0.25" points="504.256,283.631 542.176,283.633 539.752,282.342 506.681,282.340 " />
<polygon stroke="black" stroke-width="1" fill="rgb(32, 32, 32)" fill-opacity="0.25" points="508.806,280.603 506.681,282.340 539.752,282.342 537.626,280.605 " />
<polygon stroke="black" stroke-width="1" fill="rgb(32, 32, 32)" fill-opacity="0.25" points="508.806,280.603 537.626,280.605 535.882,278.488 510.551,278.486 " />
<polygon stroke="black" stroke-width="1" fill="rgb(32, 32, 32)" fill-opacity="0.25" points="510.551,278.486 535.882,278.488 534.586,276.073 511.847,276.071 " />
<polygon stroke="black" stroke-width="1" fill="rgb(32, 32, 32)" fill-opacity="0.25" points="511.847,276.071 534.586,276.073 533.787,273.452 512.645,273.451 " />
<polygon stroke="black" stroke-width="1" fill="rgb(32, 32, 32)" fill-opacity="0.25" points="533.787,273.452 533.518,270.727 512.914,270.725 512.645,273.451 " />
<polygon stroke="black" stroke-width="1" fill="rgb(32, 32, 32)" fill-opacity="0.25" points="512.914,270.725 533.518,270.727 533.787,268.001 512.645,268.000 " />
<polygon stroke="black" stroke-width="1" fill="rgb(32, 32, 32)" fill-opacity="0.25" points="511.847,265.379 512.645,268.000 533.787,268.001 534.586,265.381 " />
<polygon stroke="black" stroke-width="1" fill="rgb(32, 32, 32)" fill-opacity="0.25" points="511.847,265.379 534.586,265.381 535.882,262.966 510.551,262.964 " />
<polygon stroke="black" stroke-width="1" fill="rgb(32, 32, 32)" fill-opacity="0.25" points="510.551,262.964 535.882,262.966 537.626,260.849 508.806,260.848 " />
<polygon stroke="black" stroke-width="1" fill="rgb(32, 32, 32)" fill-opacity="0.25" points="508.806,260.848 537.626,260.849 539.752,259.112 506.681,259.110 " />
<polygon stroke="black" stroke-width="1" fill="rgb(32, 32, 32)" fill-opacity="0.25" points="506.681,259.110 539.752,259.112 542.176,257.821 504.256,257.819 " />
<polygon stroke="black" stroke-width="1" fill="rgb(32, 32, 32)" fill-opacity="0.25" points="501.625,257.024 504.256,257.819 542.176,257.821 544.808,257.026 " />
<polygon stroke="black" stroke-width="1" fill="rgb(32, 32, 32)" fill-opacity="0.25" points="498.888,256.755 501.625,257.024 544.808,257.026 547.544,256.758 " />
<polygon stroke="black" stroke-width="1" fill="rgb(32, 32, 32)" fill-opacity="0.25" points="585.815,236.725 434.470,237.454 498.888,256.755 547.544,256.758 " />
<polygon stroke="black" stroke-width="1" fill="rgb(32, 32, 32)" fill-opacity="0.25" points="547.544,256.758 550.280,257.027 585.815,236.725 " />
<polygon stroke="black" stroke-width="1" fill="rgb(32, 32, 32)" fill-opacity="0.25" points="552.911,257.822 585.815,236.725 550.280,257.027 " />
<polygon stroke="black" stroke-width="1" fill="rgb(32, 32, 32)" fill-opacity="0.25" points="555.336,259.113 585.815,236.725 552.911,257.822 " />
<polygon stroke="black" stroke-width="1" fill="rgb(32, 32, 32)" fill-opacity="0.25" points="557.462,260.850 585.815,236.725 555.336,259.113 " />
<polygon stroke="black" stroke-width="1" fill="rgb(32, 32, 32)" fill-opacity="0.25" points="559.206,262.967 585.815,236.725 557.462,260.850 " />
<polygon stroke="black" stroke-width="1" fill="rgb(32, 32, 32)" fill-opacity="0.25" points="561.300,268.003 561.570,270.728 585.863,286.277 585.815,236.725 " />
<polygon stroke="black" stroke-width="1" fill="rgb(32, 32, 32)" fill-opacity="0.25" points="561.300,268.003 585.815,236.725 560.502,265.382 " />
<polygon stroke="black" stroke-width="1" fill="rgb(32, 32, 32)" fill-opacity="0.25" points="560.502,265.382 585.815,236.725 559.206,262.967 " />
<polygon stroke="black" stroke-width="1" fill="rgb(32, 32, 32)" fill-opacity="0.25" points="560.502,276.074 585.863,286.277 561.300,273.453 " />
<polygon stroke="black" stroke-width="1" fill="rgb(32, 32, 32)" fill-opacity="0.25" points="559.206,278.489 585.863,286.277 560.502,276.074 " />
<polygon stroke="black" stroke-width="1" fill="rgb(32, 32, 32)" fill-opacity="0.25" points="557.462,280.606 585.863,286.277 559.206,278.489 " />
<polygon stroke="black" stroke-width="1" fill="rgb(32, 32, 32)" fill-opacity="0.25" points="555.336,282.343 585.863,286.277 557.462,280.606 " />
<polygon stroke="black" stroke-width="1" fill="rgb(32, 32, 32)" fill-opacity="0.25" points="552.911,283.633 585.863,286.277 555.336,282.343 " />
<polygon stroke="black" stroke-width="1" fill="rgb(32, 32, 32)" fill-opacity="0.25" points="550.280,284.428 585.863,286.277 552.911,283.633 " />
<polygon stroke="black" stroke-width="1" fill="rgb(32, 32, 32)" fill-opacity="0.25" points="547.544,284.697 585.863,286.277 550.280,284.428 " />
<polygon stroke="black" stroke-width="1" fill="rgb(32, 32, 32)" fill-opacity="0.25" points="500.168,305.783 585.863,286.277 547.544,284.697 " />
<polygon stroke="black" stroke-width="1" fill="rgb(32, 32, 32)" fill-opacity="0.25" points="498.888,284.694 496.152,284.426 500.168,305.783 " />
<polygon stroke="black" stroke-width="1" fill="rgb(32, 32, 32)" fill-opacity="0.25" points="496.152,284.426 493.521,283.631 500.168,305.783 " />
<polygon stroke="black" stroke-width="1" fill="rgb(32, 32, 32)" fill-opacity="0.25" points="491.096,282.340 500.168,305.783 493.521,283.631 " />
<polygon stroke="black" stroke-width="1" fill="rgb(32, 32, 32)" fill-opacity="0.25" points="491.096,282.340 488.971,280.603 500.168,305.783 " />
<polygon stroke="black" stroke-width="1" fill="rgb(32, 32, 32)" fill-opacity="0.25" points="434.470,279.525 500.168,305.783 488.971,280.603 " />
<polygon stroke="black" stroke-width="1" fill="rgb(32, 32, 32)" fill-opacity="0.25" points="434.200,282.250 500.168,305.783 434.470,279.525 " />
<polygon stroke="black" stroke-width="1" fill="rgb(32, 32, 32)" fill-opacity="0.25" points="433.402,284.870 500.168,305.783 434.200,282.250 " />
<polygon stroke="black" stroke-width="1" fill="rgb(32, 32, 32)" fill-opacity="0.25" points="432.106,287.285 500.168,305.783 433.402,284.870 " />
<polygon stroke="black" stroke-width="1" fill="rgb(32, 32, 32)" fill-opacity="0.25" points="430.362,289.402 500.168,305.783 432.106,287.285 " />
<polygon stroke="black" stroke-width="1" fill="rgb(32, 32, 32)" fill-opacity="0.25" points="428.236,291.139 500.168,305.783 430.362,289.402 " />
<polygon stroke="black" stroke-width="1" fill="rgb(32, 32, 32)" fill-opacity="0.25" points="425.811,292.429 500.168,305.783 428.236,291.139 " />
<polygon stroke="black" stroke-width="1" fill="rgb(32, 32, 32)" fill-opacity="0.25" points="423.180,293.225 500.168,305.783 425.811,292.429 " />
<polygon stroke="black" stroke-width="1" fill="rgb(32, 32, 32)" fill-opacity="0.25" points="420.444,293.493 500.168,305.783 423.180,293.225 " />
<polygon stroke="black" stroke-width="1" fill="rgb(32, 32, 32)" fill-opacity="0.25" points="484.862,270.726 434.470,279.525 485.132,273.451 " />
<polygon stroke="black" stroke-width="1" fill="rgb(32, 32, 32)" fill-opacity="0.25" points="485.930,276.071 485.132,273.451 434.470,279.525 " />
<polygon stroke="black" stroke-width="1" fill="rgb(32, 32, 32)" fill-opacity="0.25" points="487.226,278.487 485.930,276.071 434.470,279.525 " />
<polygon stroke="black" stroke-width="1" fill="rgb(32, 32, 32)" fill-opacity="0.25" points="487.226,278.487 434.470,279.525 488.971,280.603 " />
<polygon stroke="black" stroke-width="1" fill="rgb(32, 32, 32)" fill-opacity="0.25" points="498.888,256.755 434.470,237.454 496.152,257.024 " />
<polygon stroke="black" stroke-width="1" fill="rgb(32, 32, 32)" fill-opacity="0.25" points="493.521,257.819 496.152,257.024 434.470,237.454 " />
<polygon stroke="black" stroke-width="1" fill="rgb(32, 32, 32)" fill-opacity="0.25" points="493.521,257.819 434.470,237.454 491.096,259.110 " />
<polygon stroke="black" stroke-width="1" fill="rgb(32, 32, 32)" fill-opacity="0.25" points="491.096,259.110 434.470,237.454 488.971,260.848 " />
<polygon stroke="black" stroke-width="1" fill="rgb(32, 32, 32)" fill-opacity="0.25" points="488.971,260.848 434.470,237.454 487.226,262.964 " />
<polygon stroke="black" stroke-width="1" fill="rgb(32, 32, 32)" fill-opacity="0.25" points="485.930,265.380 487.226,262.964 434.470,237.454 " />
<polygon stroke="black" stroke-width="1" fill="rgb(32, 32, 32)" fill-opacity="0.25" points="485.132,268.000 485.930,265.380 434.470,237.454 " />
<polygon stroke="black" stroke-width="1" fill="rgb(32, 32, 32)" fill-opacity="0.25" points="484.862,270.726 485.132,268.000 434.470,237.454 " />
<polygon stroke="black" stroke-width="1" fill="rgb(32, 32, 32)" fill-opacity="0.25" points="561.300,273.453 585.863,286.277 561.570,270.728 " />
<polygon stroke="black" stroke-width="1" fill="rgb(32, 32, 32)" fill-opacity="0.25" points="287.779,193.262 712.557,193.262 727.296,158.896 452.887,158.884 " />
<polygon stroke="black" stroke-width="1" fill="rgb(32, 32, 32)" fill-opacity="0.25" points="500.168,305.783 743.282,305.724 723.633,286.277 585.863,286.277 " />
<polygon stroke="black" stroke-width="1" fill="rgb(32, 32, 32)" fill-opacity="0.25" points="743.501,100.412 500.168,100.399 452.673,112.991 727.296,112.990 " />
<polygon stroke="black" stroke-width="1" fill="rgb(32, 32, 32)" fill-opacity="0.25" points="500.168,100.399 261.510,100.606 452.673,112.991 " />
<polygon stroke="black" stroke-width="1" fill="rgb(32, 32, 32)" fill-opacity="0.25" points="712.557,213.680 585.815,236.725 723.633,236.700 " />
<polygon stroke="black" stroke-width="1" fill="rgb(32, 32, 32)" fill-opacity="0.25" points="501.847,616.757 401.600,616.757 501.847,612.018 " />
<polygon stroke="black" stroke-width="1" fill="rgb(32, 32, 32)" fill-opacity="0.25" points="561.922,1019.881 650.262,1019.881 650.262,1041.404 561.922,1041.404 " />
<polygon stroke="black" stroke-width="1" fill="rgb(32, 32, 32)" fill-opacity="0.25" points="692.938,1019.881 762.856,1029.528 762.856,1052.641 692.938,1041.404 " />
<polygon stroke="black" stroke-width="1" fill="rgb(32, 32, 32)" fill-opacity="0.25" points="692.938,1041.404 762.856,1052.641 650.262,1041.404 " />
<polygon stroke="black" stroke-width="1" fill="rgb(32, 32, 32)" fill-opacity="0.25" points="846.638,925.487 846.638,616.757 833.037,616.757 833.037,925.487 " />
<polygon stroke="black" stroke-width="1" fill="rgb(32, 32, 32)" fill-opacity="0.25" points="501.847,612.018 401.600,616.757 311.247,616.757 260.258,613.604 " />
<polygon stroke="black" stroke-width="1" fill="rgb(32, 32, 32)" fill-opacity="0.25" points="561.922,1019.881 650.262,1019.881 501.847,941.840 " />
<polygon stroke="black" stroke-width="1" fill="rgb(32, 32, 32)" fill-opacity="0.25" points="519.246,1041.404 519.246,1019.881 501.847,941.840 501.847,1063.124 " />
<polygon stroke="black" stroke-width="1" fill="rgb(32, 32, 32)" fill-opacity="0.25" points="501.847,1063.124 501.847,941.840 430.907,1019.881 " />
<polygon stroke="black" stroke-width="1" fill="rgb(32, 32, 32)" fill-opacity="0.25" points="430.907,1019.881 501.847,941.840 311.247,941.840 388.231,1019.881 " />
<polygon stroke="black" stroke-width="1" fill="rgb(32, 32, 32)" fill-opacity="0.25" points="388.231,1019.881 311.247,941.840 131.391,1053.189 388.231,1041.404 " />
<polygon stroke="black" stroke-width="1" fill="rgb(32, 32, 32)" fill-opacity="0.25" points="260.258,887.610 172.616,887.610 131.391,1053.189 311.247,941.840 311.247,925.487 " />
<polygon stroke="black" stroke-width="1" fill="rgb(32, 32, 32)" fill-opacity="0.25" points="260.258,887.610 311.247,925.487 311.247,892.395 260.258,856.473 " />
<polygon stroke="black" stroke-width="1" fill="rgb(32, 32, 32)" fill-opacity="0.25" points="846.638,616.757 846.638,925.487 872.303,612.018 " />
<polygon stroke="black" stroke-width="1" fill="rgb(32, 32, 32)" fill-opacity="0.25" points="872.303,612.018 846.638,925.487 846.638,941.840 872.303,1053.189 " />
<polygon stroke="black" stroke-width="1" fill="rgb(32, 32, 32)" fill-opacity="0.25" points="311.247,892.395 311.247,925.487 401.600,925.487 401.600,892.395 " />
<polygon stroke="black" stroke-width="1" fill="rgb(32, 32, 32)" fill-opacity="0.25" points="846.638,616.757 846.638,616.757 833.037,616.757 833.037,616.757 " />
<polygon stroke="black" stroke-width="1" fill="rgb(32, 32, 32)" fill-opacity="0.25" points="311.247,680.212 311.247,747.095 401.600,747.095 401.600,680.212 " />
<polygon stroke="black" stroke-width="1" fill="rgb(32, 32, 32)" fill-opacity="0.25" points="319.365,616.757 311.247,616.757 401.600,616.757 401.600,616.757 " />
<polygon stroke="black" stroke-width="1" fill="rgb(32, 32, 32)" fill-opacity="0.25" points="311.247,747.095 311.247,892.395 401.600,892.395 401.600,747.095 " />
<polygon stroke="black" stroke-width="1" fill="rgb(32, 32, 32)" fill-opacity="0.25" points="260.258,644.741 311.247,680.212 311.247,616.757 260.258,613.604 " />
<polygon stroke="black" stroke-width="1" fill="rgb(32, 32, 32)" fill-opacity="0.25" points="260.258,644.741 172.616,644.741 172.616,694.560 260.258,694.560 " />
<polygon stroke="black" stroke-width="1" fill="rgb(32, 32, 32)" fill-opacity="0.25" points="260.258,694.560 311.247,680.212 260.258,644.741 " />
<polygon stroke="black" stroke-width="1" fill="rgb(32, 32, 32)" fill-opacity="0.25" points="131.391,612.018 172.616,694.560 172.616,644.741 " />
<polygon stroke="black" stroke-width="1" fill="rgb(32, 32, 32)" fill-opacity="0.25" points="172.616,694.560 131.391,612.018 172.616,725.697 " />
<polygon stroke="black" stroke-width="1" fill="rgb(32, 32, 32)" fill-opacity="0.25" points="501.847,612.018 872.303,612.018 833.037,616.757 501.847,616.757 " />
<polygon stroke="black" stroke-width="1" fill="rgb(32, 32, 32)" fill-opacity="0.25" points="833.037,616.757 872.303,612.018 846.638,616.757 " />
<polygon stroke="black" stroke-width="1" fill="rgb(32, 32, 32)" fill-opacity="0.25" points="846.638,941.840 833.037,925.487 501.847,925.487 501.847,941.840 " />
<polygon stroke="black" stroke-width="1" fill="rgb(32, 32, 32)" fill-opacity="0.25" points="311.247,941.840 501.847,941.840 501.847,925.487 401.600,925.487 " />
<polygon stroke="black" stroke-width="1" fill="rgb(32, 32, 32)" fill-opacity="0.25" points="401.600,925.487 311.247,925.487 311.247,941.840 " />
<polygon stroke="black" stroke-width="1" fill="rgb(32, 32, 32)" fill-opacity="0.25" points="846.638,941.840 846.638,925.487 833.037,925.487 " />
<polygon stroke="black" stroke-width="1" fill="rgb(32, 32, 32)" fill-opacity="0.25" points="762.856,1012.194 762.856,1029.528 692.938,1019.881 " />
<polygon stroke="black" stroke-width="1" fill="rgb(32, 32, 32)" fill-opacity="0.25" points="762.856,989.081 762.856,1012.194 692.938,1019.881 " />
<polygon stroke="black" stroke-width="1" fill="rgb(32, 32, 32)" fill-opacity="0.25" points="762.856,989.081 692.938,1019.881 762.856,971.747 " />
<polygon stroke="black" stroke-width="1" fill="rgb(32, 32, 32)" fill-opacity="0.25" points="762.856,971.747 692.938,1019.881 762.856,948.634 " />
<polygon stroke="black" stroke-width="1" fill="rgb(32, 32, 32)" fill-opacity="0.25" points="501.844,612.017 236.560,549.187 195.428,549.187 131.386,612.017 " />
<polygon stroke="black" stroke-width="1" fill="rgb(32, 32, 32)" fill-opacity="0.25" points="131.386,612.017 195.428,549.187 195.428,524.385 149.429,460.124 " />
<polygon stroke="black" stroke-width="1" fill="rgb(32, 32, 32)" fill-opacity="0.25" points="153.381,453.198 149.429,460.124 195.428,524.385 " />
<polygon stroke="black" stroke-width="1" fill="rgb(32, 32, 32)" fill-opacity="0.25" points="160.567,450.196 153.381,453.198 195.428,524.385 " />
<polygon stroke="black" stroke-width="1" fill="rgb(32, 32, 32)" fill-opacity="0.25" points="311.247,747.095 260.258,725.697 260.258,775.517 " />
<polygon stroke="black" stroke-width="1" fill="rgb(32, 32, 32)" fill-opacity="0.25" points="260.258,725.697 311.247,747.095 311.247,680.212 260.258,694.560 " />
<polygon stroke="black" stroke-width="1" fill="rgb(32, 32, 32)" fill-opacity="0.25" points="260.258,856.473 260.258,806.654 172.616,806.654 172.616,856.473 " />
<polygon stroke="black" stroke-width="1" fill="rgb(32, 32, 32)" fill-opacity="0.25" points="260.258,725.697 172.616,725.697 172.616,775.517 260.258,775.517 " />
<polygon stroke="black" stroke-width="1" fill="rgb(32, 32, 32)" fill-opacity="0.25" points="131.391,1053.189 172.616,806.654 172.616,775.517 131.391,612.018 " />
<polygon stroke="black" stroke-width="1" fill="rgb(32, 32, 32)" fill-opacity="0.25" points="131.391,612.018 172.616,775.517 172.616,725.697 " />
<polygon stroke="black" stroke-width="1" fill="rgb(32, 32, 32)" fill-opacity="0.25" points="172.616,806.654 131.391,1053.189 172.616,856.473 " />
<polygon stroke="black" stroke-width="1" fill="rgb(32, 32, 32)" fill-opacity="0.25" points="172.616,887.610 172.616,856.473 131.391,1053.189 " />
<polygon stroke="black" stroke-width="1" fill="rgb(32, 32, 32)" fill-opacity="0.25" points="501.847,612.018 131.391,612.018 172.616,613.604 260.258,613.604 " />
<polygon stroke="black" stroke-width="1" fill="rgb(32, 32, 32)" fill-opacity="0.25" points="430.907,1041.404 501.847,1063.124 430.907,1019.881 " />
<polygon stroke="black" stroke-width="1" fill="rgb(32, 32, 32)" fill-opacity="0.25" points="134.166,1060.214 140.864,1063.124 388.231,1041.404 131.391,1053.189 " />
<polygon stroke="black" stroke-width="1" fill="rgb(32, 32, 32)" fill-opacity="0.25" points="837.684,1029.528 837.684,1012.194 762.856,1012.194 762.856,1029.528 " />
<polygon stroke="black" stroke-width="1" fill="rgb(32, 32, 32)" fill-opacity="0.25" points="837.684,989.081 837.684,1012.194 872.303,1053.189 " />
<polygon stroke="black" stroke-width="1" fill="rgb(32, 32, 32)" fill-opacity="0.25" points="837.684,1012.194 837.684,1029.528 872.303,1053.189 " />
<polygon stroke="black" stroke-width="1" fill="rgb(32, 32, 32)" fill-opacity="0.25" points="837.684,1029.528 837.684,1052.641 872.303,1053.189 " />
<polygon stroke="black" stroke-width="1" fill="rgb(32, 32, 32)" fill-opacity="0.25" points="862.830,1063.124 837.684,1052.641 762.856,1052.641 501.847,1063.124 " />
<polygon stroke="black" stroke-width="1" fill="rgb(32, 32, 32)" fill-opacity="0.25" points="501.847,941.840 519.246,1019.881 561.922,1019.881 " />
<polygon stroke="black" stroke-width="1" fill="rgb(32, 32, 32)" fill-opacity="0.25" points="869.528,1060.214 872.303,1053.189 837.684,1052.641 862.830,1063.124 " />
<polygon stroke="black" stroke-width="1" fill="rgb(32, 32, 32)" fill-opacity="0.25" points="650.262,1019.881 692.938,1019.881 762.856,948.634 501.847,941.840 " />
<polygon stroke="black" stroke-width="1" fill="rgb(32, 32, 32)" fill-opacity="0.25" points="762.856,971.747 762.856,948.634 692.938,1019.881 " />
<polygon stroke="black" stroke-width="1" fill="rgb(32, 32, 32)" fill-opacity="0.25" points="762.856,989.081 762.856,971.747 692.938,1019.881 " />
<polygon stroke="black" stroke-width="1" fill="rgb(32, 32, 32)" fill-opacity="0.25" points="762.856,1012.194 762.856,989.081 692.938,1019.881 " />
<polygon stroke="black" stroke-width="1" fill="rgb(32, 32, 32)" fill-opacity="0.25" points="762.856,1029.528 762.856,1012.194 692.938,1019.881 " />
<polygon stroke="black" stroke-width="1" fill="rgb(32, 32, 32)" fill-opacity="0.25" points="692.938,1041.404 762.856,1052.641 762.856,1029.528 692.938,1019.881 " />
<polygon stroke="black" stroke-width="1" fill="rgb(32, 32, 32)" fill-opacity="0.25" points="837.684,989.081 872.303,1053.189 837.684,971.747 " />
<polygon stroke="black" stroke-width="1" fill="rgb(32, 32, 32)" fill-opacity="0.25" points="837.684,971.747 872.303,1053.189 837.684,948.634 " />

</svg>
