<?xml version="1.0" standalone="no"?>
<!DOCTYPE svg PUBLIC "-//W3C//DTD SVG 1.1//EN" 
  "http://www.w3.org/Graphics/SVG/1.1/DTD/svg11.dtd">
<svg width="1142" height="1269" viewBox="0 0 1142 1269"
     xmlns="http://www.w3.org/2000/svg" version="1.1">
<desc>TricorderMKIX_revised_1.6.blend, (Blender 2.80 (sub 75))</desc>
<polygon stroke="black" stroke-width="1" fill="rgb(32, 32, 32)" fill-opacity="0.25" points="260.258,775.517 260.258,806.654 311.247,747.095 " />
<polygon stroke="black" stroke-width="1" fill="rgb(32, 32, 32)" fill-opacity="0.25" points="160.567,450.196 195.428,524.385 236.560,524.385 501.844,450.196 " />
<polygon stroke="black" stroke-width="1" fill="rgb(32, 32, 32)" fill-opacity="0.25" points="837.684,948.634 872.303,1053.189 846.638,941.840 " />
<polygon stroke="black" stroke-width="1" fill="rgb(32, 32, 32)" fill-opacity="0.25" points="501.844,450.196 501.844,612.017 872.303,612.017 854.259,460.123 850.307,453.198 843.121,450.196 " />
<polygon stroke="black" stroke-width="1" fill="rgb(32, 32, 32)" fill-opacity="0.25" points="501.844,612.017 501.844,450.196 236.560,524.385 236.560,549.187 " />
<polygon stroke="black" stroke-width="1" fill="rgb(32, 32, 32)" fill-opacity="0.25" points="519.246,1041.404 501.847,1063.124 561.922,1041.404 " />
<polygon stroke="black" stroke-width="1" fill="rgb(32, 32, 32)" fill-opacity="0.25" points="692.938,1041.404 650.262,1041.404 762.856,1052.641 " />
<polygon stroke="black" stroke-width="1" fill="rgb(32, 32, 32)" fill-opacity="0.25" points="837.684,971.747 762.856,971.747 762.856,989.081 837.684,989.081 " />
<polygon stroke="black" stroke-width="1" fill="rgb(32, 32, 32)" fill-opacity="0.25" points="762.856,1052.641 650.262,1041.404 561.922,1041.404 501.847,1063.124 " />
<polygon stroke="black" stroke-width="1" fill="rgb(32, 32, 32)" fill-opacity="0.25" points="311.247,747.095 260.258,806.654 260.258,856.473 311.247,892.395 " />
<polygon stroke="black" stroke-width="1" fill="rgb(32, 32, 32)" fill-opacity="0.25" points="172.616,644.741 172.616,613.604 131.391,612.018 " />
<polygon stroke="black" stroke-width="1" fill="rgb(32, 32, 32)" fill-opacity="0.25" points="311.247,616.757 311.247,680.212 401.600,680.212 401.600,616.757 " />
<polygon stroke="black" stroke-width="1" fill="rgb(32, 32, 32)" fill-opacity="0.25" points="140.864,1063.124 501.847,1063.124 430.907,1041.404 388.231,1041.404 " />
<polygon stroke="black" stroke-width="1" fill="rgb(32, 32, 32)" fill-opacity="0.25" points="561.922,1041.404 650.262,1041.404 650.262,1019.881 561.922,1019.881 " />
<polygon stroke="black" stroke-width="1" fill="rgb(32, 32, 32)" fill-opacity="0.25" points="837.684,948.634 846.638,941.840 501.847,941.840 762.856,948.634 " />
<polygon stroke="black" stroke-width="1" fill="rgb(32, 32, 32)" fill-opacity="0.25" points="501.847,616.757 401.600,616.757 501.847,612.018 " />
<polygon stroke="black" stroke-width="1" fill="rgb(32, 32, 32)" fill-opacity="0.25" points="846.638,925.487 846.638,616.757 833.037,616.757 833.037,925.487 " />
<polygon stroke="black" stroke-width="1" fill="rgb(32, 32, 32)" fill-opacity="0.25" points="501.847,612.018 401.600,616.757 311.247,616.757 260.258,613.604 " />
<polygon stroke="black" stroke-width="1" fill="rgb(32, 32, 32)" fill-opacity="0.25" points="561.922,1019.881 650.262,1019.881 501.847,941.840 " />
<polygon stroke="black" stroke-width="1" fill="rgb(32, 32, 32)" fill-opacity="0.25" points="519.246,1041.404 519.246,1019.881 501.847,941.840 501.847,1063.124 " />
<polygon stroke="black" stroke-width="1" fill="rgb(32, 32, 32)" fill-opacity="0.25" points="501.847,1063.124 501.847,941.840 430.907,1019.881 " />
<polygon stroke="black" stroke-width="1" fill="rgb(32, 32, 32)" fill-opacity="0.25" points="430.907,1019.881 501.847,941.840 311.247,941.840 388.231,1019.881 " />
<polygon stroke="black" stroke-width="1" fill="rgb(32, 32, 32)" fill-opacity="0.25" points="388.231,1019.881 311.247,941.840 131.391,1053.189 388.231,1041.404 " />
<polygon stroke="black" stroke-width="1" fill="rgb(32, 32, 32)" fill-opacity="0.25" points="260.258,887.610 172.616,887.610 131.391,1053.189 311.247,941.840 311.247,925.487 " />
<polygon stroke="black" stroke-width="1" fill="rgb(32, 32, 32)" fill-opacity="0.25" points="260.258,887.610 311.247,925.487 311.247,892.395 260.258,856.473 " />
<polygon stroke="black" stroke-width="1" fill="rgb(32, 32, 32)" fill-opacity="0.25" points="846.638,616.757 846.638,925.487 872.303,612.018 " />
<polygon stroke="black" stroke-width="1" fill="rgb(32, 32, 32)" fill-opacity="0.25" points="872.303,612.018 846.638,925.487 846.638,941.840 872.303,1053.189 " />
<polygon stroke="black" stroke-width="1" fill="rgb(32, 32, 32)" fill-opacity="0.25" points="311.247,892.395 311.247,925.487 401.600,925.487 401.600,892.395 " />
<polygon stroke="black" stroke-width="1" fill="rgb(32, 32, 32)" fill-opacity="0.25" points="311.247,680.212 311.247,747.095 401.600,747.095 401.600,680.212 " />
<polygon stroke="black" stroke-width="1" fill="rgb(32, 32, 32)" fill-opacity="0.25" points="311.247,747.095 311.247,892.395 401.600,892.395 401.600,747.095 " />
<polygon stroke="black" stroke-width="1" fill="rgb(32, 32, 32)" fill-opacity="0.25" points="260.258,644.741 311.247,680.212 311.247,616.757 260.258,613.604 " />
<polygon stroke="black" stroke-width="1" fill="rgb(32, 32, 32)" fill-opacity="0.25" points="260.258,644.741 172.616,644.741 172.616,694.560 260.258,694.560 " />
<polygon stroke="black" stroke-width="1" fill="rgb(32, 32, 32)" fill-opacity="0.25" points="260.258,694.560 311.247,680.212 260.258,644.741 " />
<polygon stroke="black" stroke-width="1" fill="rgb(32, 32, 32)" fill-opacity="0.25" points="131.391,612.018 172.616,694.560 172.616,644.741 " />
<polygon stroke="black" stroke-width="1" fill="rgb(32, 32, 32)" fill-opacity="0.25" points="172.616,694.560 131.391,612.018 172.616,725.697 " />
<polygon stroke="black" stroke-width="1" fill="rgb(32, 32, 32)" fill-opacity="0.25" points="501.847,612.018 872.303,612.018 833.037,616.757 501.847,616.757 " />
<polygon stroke="black" stroke-width="1" fill="rgb(32, 32, 32)" fill-opacity="0.25" points="846.638,941.840 833.037,925.487 501.847,925.487 501.847,941.840 " />
<polygon stroke="black" stroke-width="1" fill="rgb(32, 32, 32)" fill-opacity="0.25" points="311.247,941.840 501.847,941.840 501.847,925.487 401.600,925.487 " />
<polygon stroke="black" stroke-width="1" fill="rgb(32, 32, 32)" fill-opacity="0.25" points="401.600,925.487 311.247,925.487 311.247,941.840 " />
<polygon stroke="black" stroke-width="1" fill="rgb(32, 32, 32)" fill-opacity="0.25" points="846.638,941.840 846.638,925.487 833.037,925.487 " />
<polygon stroke="black" stroke-width="1" fill="rgb(32, 32, 32)" fill-opacity="0.25" points="501.844,612.017 236.560,549.187 195.428,549.187 131.386,612.017 " />
<polygon stroke="black" stroke-width="1" fill="rgb(32, 32, 32)" fill-opacity="0.25" points="131.386,612.017 195.428,549.187 195.428,524.385 149.429,460.124 " />
<polygon stroke="black" stroke-width="1" fill="rgb(32, 32, 32)" fill-opacity="0.25" points="153.381,453.198 149.429,460.124 195.428,524.385 " />
<polygon stroke="black" stroke-width="1" fill="rgb(32, 32, 32)" fill-opacity="0.25" points="160.567,450.196 153.381,453.198 195.428,524.385 " />
<polygon stroke="black" stroke-width="1" fill="rgb(32, 32, 32)" fill-opacity="0.25" points="311.247,747.095 260.258,725.697 260.258,775.517 " />
<polygon stroke="black" stroke-width="1" fill="rgb(32, 32, 32)" fill-opacity="0.25" points="260.258,725.697 311.247,747.095 311.247,680.212 260.258,694.560 " />
<polygon stroke="black" stroke-width="1" fill="rgb(32, 32, 32)" fill-opacity="0.25" points="260.258,856.473 260.258,806.654 172.616,806.654 172.616,856.473 " />
<polygon stroke="black" stroke-width="1" fill="rgb(32, 32, 32)" fill-opacity="0.25" points="260.258,725.697 172.616,725.697 172.616,775.517 260.258,775.517 " />
<polygon stroke="black" stroke-width="1" fill="rgb(32, 32, 32)" fill-opacity="0.25" points="131.391,1053.189 172.616,806.654 172.616,775.517 131.391,612.018 " />
<polygon stroke="black" stroke-width="1" fill="rgb(32, 32, 32)" fill-opacity="0.25" points="131.391,612.018 172.616,775.517 172.616,725.697 " />
<polygon stroke="black" stroke-width="1" fill="rgb(32, 32, 32)" fill-opacity="0.25" points="172.616,806.654 131.391,1053.189 172.616,856.473 " />
<polygon stroke="black" stroke-width="1" fill="rgb(32, 32, 32)" fill-opacity="0.25" points="172.616,887.610 172.616,856.473 131.391,1053.189 " />
<polygon stroke="black" stroke-width="1" fill="rgb(32, 32, 32)" fill-opacity="0.25" points="501.847,612.018 131.391,612.018 172.616,613.604 260.258,613.604 " />
<polygon stroke="black" stroke-width="1" fill="rgb(32, 32, 32)" fill-opacity="0.25" points="430.907,1041.404 501.847,1063.124 430.907,1019.881 " />
<polygon stroke="black" stroke-width="1" fill="rgb(32, 32, 32)" fill-opacity="0.25" points="134.166,1060.214 140.864,1063.124 388.231,1041.404 131.391,1053.189 " />
<polygon stroke="black" stroke-width="1" fill="rgb(32, 32, 32)" fill-opacity="0.25" points="837.684,1029.528 837.684,1012.194 762.856,1012.194 762.856,1029.528 " />
<polygon stroke="black" stroke-width="1" fill="rgb(32, 32, 32)" fill-opacity="0.25" points="837.684,989.081 837.684,1012.194 872.303,1053.189 " />
<polygon stroke="black" stroke-width="1" fill="rgb(32, 32, 32)" fill-opacity="0.25" points="837.684,1012.194 837.684,1029.528 872.303,1053.189 " />
<polygon stroke="black" stroke-width="1" fill="rgb(32, 32, 32)" fill-opacity="0.25" points="837.684,1029.528 837.684,1052.641 872.303,1053.189 " />
<polygon stroke="black" stroke-width="1" fill="rgb(32, 32, 32)" fill-opacity="0.25" points="862.830,1063.124 837.684,1052.641 762.856,1052.641 501.847,1063.124 " />
<polygon stroke="black" stroke-width="1" fill="rgb(32, 32, 32)" fill-opacity="0.25" points="501.847,941.840 519.246,1019.881 561.922,1019.881 " />
<polygon stroke="black" stroke-width="1" fill="rgb(32, 32, 32)" fill-opacity="0.25" points="869.528,1060.214 872.303,1053.189 837.684,1052.641 862.830,1063.124 " />
<polygon stroke="black" stroke-width="1" fill="rgb(32, 32, 32)" fill-opacity="0.25" points="650.262,1019.881 692.938,1019.881 762.856,948.634 501.847,941.840 " />
<polygon stroke="black" stroke-width="1" fill="rgb(32, 32, 32)" fill-opacity="0.25" points="762.856,971.747 762.856,948.634 692.938,1019.881 " />
<polygon stroke="black" stroke-width="1" fill="rgb(32, 32, 32)" fill-opacity="0.25" points="762.856,989.081 762.856,971.747 692.938,1019.881 " />
<polygon stroke="black" stroke-width="1" fill="rgb(32, 32, 32)" fill-opacity="0.25" points="762.856,1012.194 762.856,989.081 692.938,1019.881 " />
<polygon stroke="black" stroke-width="1" fill="rgb(32, 32, 32)" fill-opacity="0.25" points="762.856,1029.528 762.856,1012.194 692.938,1019.881 " />
<polygon stroke="black" stroke-width="1" fill="rgb(32, 32, 32)" fill-opacity="0.25" points="692.938,1041.404 762.856,1052.641 762.856,1029.528 692.938,1019.881 " />
<polygon stroke="black" stroke-width="1" fill="rgb(32, 32, 32)" fill-opacity="0.25" points="837.684,989.081 872.303,1053.189 837.684,971.747 " />
<polygon stroke="black" stroke-width="1" fill="rgb(32, 32, 32)" fill-opacity="0.25" points="837.684,971.747 872.303,1053.189 837.684,948.634 " />

</svg>
