<?xml version="1.0" standalone="no"?>
<!DOCTYPE svg PUBLIC "-//W3C//DTD SVG 1.1//EN" 
  "http://www.w3.org/Graphics/SVG/1.1/DTD/svg11.dtd">
<svg width="1142" height="1269" viewBox="0 0 1142 1269"
     xmlns="http://www.w3.org/2000/svg" version="1.1">
<desc>TricorderMKIX_revised_1.6.blend, (Blender 2.80 (sub 75))</desc>
<polygon stroke="black" stroke-width="1" fill="rgb(32, 32, 32)" fill-opacity="0.25" points="237.451,439.899 397.185,439.899 402.287,438.532 406.022,434.796 407.389,429.692 407.389,367.838 406.022,362.734 395.474,365.102 395.474,432.427 348.720,432.427 227.246,429.692 228.614,434.796 232.349,438.532 " />
<polygon stroke="black" stroke-width="1" fill="rgb(32, 32, 32)" fill-opacity="0.25" points="227.246,429.692 348.720,432.427 348.720,365.102 292.648,366.293 292.648,388.735 245.895,388.735 227.246,367.838 " />
<polygon stroke="black" stroke-width="1" fill="rgb(32, 32, 32)" fill-opacity="0.25" points="227.246,367.838 245.895,388.735 245.895,366.293 292.648,366.293 348.720,365.102 395.474,365.102 406.022,362.734 402.287,358.997 397.185,357.630 237.451,357.630 232.349,358.997 228.614,362.734 " />

</svg>
