<?xml version="1.0" standalone="no"?>
<!DOCTYPE svg PUBLIC "-//W3C//DTD SVG 1.1//EN" 
  "http://www.w3.org/Graphics/SVG/1.1/DTD/svg11.dtd">
<svg width="1142" height="1269" viewBox="0 0 1142 1269"
     xmlns="http://www.w3.org/2000/svg" version="1.1">
<desc>TricorderMKIX_revised_1.6.blend, (Blender 2.80 (sub 75))</desc>
<polygon stroke="black" stroke-width="1" fill="rgb(32, 32, 32)" fill-opacity="0.25" points="762.885,439.899 767.987,438.532 771.722,434.796 773.089,429.692 773.089,367.838 759.663,375.388 759.663,422.141 669.897,422.141 644.721,421.844 644.549,423.592 643.751,426.223 642.455,428.648 640.710,430.773 638.585,432.517 636.160,433.814 633.529,434.612 630.792,434.881 628.056,434.612 625.425,433.814 623.000,432.517 620.875,430.773 619.130,428.648 617.834,426.223 617.036,423.592 616.766,420.855 592.946,429.692 594.314,434.796 598.049,438.532 603.151,439.899 " />
<polygon stroke="black" stroke-width="1" fill="rgb(32, 32, 32)" fill-opacity="0.25" points="592.946,429.692 616.766,420.855 617.036,418.119 617.834,415.488 619.130,413.063 620.875,410.937 623.000,409.193 625.425,407.897 628.056,407.099 630.792,406.829 633.529,407.099 636.160,407.897 638.585,409.193 640.710,410.937 642.455,413.063 643.751,415.488 644.549,418.119 644.818,420.855 644.721,421.844 669.897,422.141 669.897,375.388 644.818,376.167 644.549,378.903 643.751,381.535 642.455,383.959 640.710,386.085 638.585,387.829 636.160,389.125 633.529,389.923 630.792,390.193 628.056,389.923 625.425,389.125 623.000,387.829 620.875,386.085 619.130,383.959 617.834,381.535 617.036,378.903 616.766,376.167 592.946,367.838 " />
<polygon stroke="black" stroke-width="1" fill="rgb(32, 32, 32)" fill-opacity="0.25" points="592.946,367.838 616.766,376.167 617.036,373.431 617.834,370.799 619.130,368.375 620.875,366.249 623.000,364.505 625.425,363.209 628.056,362.410 630.792,362.141 633.529,362.410 636.160,363.209 638.585,364.505 640.710,366.249 642.455,368.375 643.751,370.800 644.549,373.431 644.818,376.167 669.897,375.388 759.663,375.388 773.089,367.838 771.722,362.734 767.987,358.998 762.885,357.630 603.151,357.630 598.049,358.998 594.314,362.734 " />

</svg>
