<?xml version="1.0" standalone="no"?>
<!DOCTYPE svg PUBLIC "-//W3C//DTD SVG 1.1//EN" 
  "http://www.w3.org/Graphics/SVG/1.1/DTD/svg11.dtd">
<svg width="1024" height="1024" viewBox="0 0 1024 1024"
     xmlns="http://www.w3.org/2000/svg" version="1.1">
<desc>TricorderMKIX_revised_1.7.blend, (Blender 2.80 (sub 75))</desc>
<polygon stroke="black" stroke-width="1" fill="rgb(32, 32, 32)" fill-opacity="0.25" points="351.916,585.316 351.916,604.705 383.666,567.619 " />
<polygon stroke="black" stroke-width="1" fill="rgb(32, 32, 32)" fill-opacity="0.25" points="289.870,382.179 311.577,428.552 337.189,428.552 502.377,382.179 " />
<polygon stroke="black" stroke-width="1" fill="rgb(32, 32, 32)" fill-opacity="0.25" points="711.472,692.514 733.029,758.218 717.048,688.883 " />
<polygon stroke="black" stroke-width="1" fill="rgb(32, 32, 32)" fill-opacity="0.25" points="502.377,483.329 708.605,483.329 714.885,382.179 502.377,382.179 " />
<polygon stroke="black" stroke-width="1" fill="rgb(32, 32, 32)" fill-opacity="0.25" points="502.377,483.329 502.377,382.179 337.189,428.552 337.189,444.055 " />
<polygon stroke="black" stroke-width="1" fill="rgb(32, 32, 32)" fill-opacity="0.25" points="513.185,752.725 502.351,764.406 539.759,752.725 " />
<polygon stroke="black" stroke-width="1" fill="rgb(32, 32, 32)" fill-opacity="0.25" points="621.341,752.724 594.767,752.725 664.878,758.597 " />
<polygon stroke="black" stroke-width="1" fill="rgb(32, 32, 32)" fill-opacity="0.25" points="711.472,708.345 664.878,708.345 664.878,717.580 711.472,717.580 " />
<polygon stroke="black" stroke-width="1" fill="rgb(32, 32, 32)" fill-opacity="0.25" points="664.878,758.597 594.767,752.725 539.759,752.725 502.351,764.406 " />
<polygon stroke="black" stroke-width="1" fill="rgb(32, 32, 32)" fill-opacity="0.25" points="383.666,567.619 351.916,604.705 351.916,635.727 383.667,658.095 " />
<polygon stroke="black" stroke-width="1" fill="rgb(32, 32, 32)" fill-opacity="0.25" points="297.342,503.884 297.342,483.508 271.672,483.508 " />
<polygon stroke="black" stroke-width="1" fill="rgb(32, 32, 32)" fill-opacity="0.25" points="383.666,483.507 383.666,525.971 439.928,525.971 439.927,483.507 " />
<polygon stroke="black" stroke-width="1" fill="rgb(32, 32, 32)" fill-opacity="0.25" points="277.571,764.406 502.351,764.406 458.177,752.725 431.603,752.725 " />
<polygon stroke="black" stroke-width="1" fill="rgb(32, 32, 32)" fill-opacity="0.25" points="539.759,752.725 594.767,752.725 594.767,737.060 539.759,737.060 " />
<polygon stroke="black" stroke-width="1" fill="rgb(32, 32, 32)" fill-opacity="0.25" points="711.472,692.514 717.048,688.883 502.351,688.883 664.878,692.514 " />
<polygon stroke="black" stroke-width="1" fill="rgb(32, 32, 32)" fill-opacity="0.25" points="717.048,678.700 717.048,483.507 708.578,483.507 708.579,678.700 " />
<polygon stroke="black" stroke-width="1" fill="rgb(32, 32, 32)" fill-opacity="0.25" points="337.189,444.055 351.943,483.329 383.693,483.329 " />
<polygon stroke="black" stroke-width="1" fill="rgb(32, 32, 32)" fill-opacity="0.25" points="539.759,737.060 594.767,737.060 502.351,688.883 " />
<polygon stroke="black" stroke-width="1" fill="rgb(32, 32, 32)" fill-opacity="0.25" points="513.185,752.725 513.185,737.060 502.351,688.883 502.351,764.406 " />
<polygon stroke="black" stroke-width="1" fill="rgb(32, 32, 32)" fill-opacity="0.25" points="502.351,764.406 502.351,688.883 458.177,737.060 " />
<polygon stroke="black" stroke-width="1" fill="rgb(32, 32, 32)" fill-opacity="0.25" points="458.177,737.060 502.351,688.883 383.667,688.884 431.603,737.060 " />
<polygon stroke="black" stroke-width="1" fill="rgb(32, 32, 32)" fill-opacity="0.25" points="431.603,737.060 383.667,688.884 271.673,758.219 431.603,752.725 " />
<polygon stroke="black" stroke-width="1" fill="rgb(32, 32, 32)" fill-opacity="0.25" points="351.916,655.116 297.343,655.116 271.673,758.219 383.667,688.884 383.667,678.701 " />
<polygon stroke="black" stroke-width="1" fill="rgb(32, 32, 32)" fill-opacity="0.25" points="351.916,655.116 383.667,678.701 383.667,658.095 351.916,635.727 " />
<polygon stroke="black" stroke-width="1" fill="rgb(32, 32, 32)" fill-opacity="0.25" points="717.048,483.507 717.048,678.700 733.029,483.507 " />
<polygon stroke="black" stroke-width="1" fill="rgb(32, 32, 32)" fill-opacity="0.25" points="733.029,483.507 717.048,678.700 717.048,688.883 733.029,758.218 " />
<polygon stroke="black" stroke-width="1" fill="rgb(32, 32, 32)" fill-opacity="0.25" points="383.667,658.095 383.667,678.701 439.928,678.701 439.928,658.095 " />
<polygon stroke="black" stroke-width="1" fill="rgb(32, 32, 32)" fill-opacity="0.25" points="383.666,525.971 383.666,567.619 439.928,567.618 439.928,525.971 " />
<polygon stroke="black" stroke-width="1" fill="rgb(32, 32, 32)" fill-opacity="0.25" points="383.666,567.619 383.667,658.095 439.928,658.095 439.928,567.618 " />
<polygon stroke="black" stroke-width="1" fill="rgb(32, 32, 32)" fill-opacity="0.25" points="351.916,503.884 383.666,525.971 383.666,483.507 351.916,483.507 " />
<polygon stroke="black" stroke-width="1" fill="rgb(32, 32, 32)" fill-opacity="0.25" points="351.916,503.884 297.342,503.884 297.342,534.906 351.916,534.906 " />
<polygon stroke="black" stroke-width="1" fill="rgb(32, 32, 32)" fill-opacity="0.25" points="351.916,534.906 383.666,525.971 351.916,503.884 " />
<polygon stroke="black" stroke-width="1" fill="rgb(32, 32, 32)" fill-opacity="0.25" points="271.672,483.508 297.342,534.906 297.342,503.884 " />
<polygon stroke="black" stroke-width="1" fill="rgb(32, 32, 32)" fill-opacity="0.25" points="297.342,534.906 271.672,483.508 297.342,554.294 " />
<polygon stroke="black" stroke-width="1" fill="rgb(32, 32, 32)" fill-opacity="0.25" points="383.693,483.329 439.955,483.329 337.189,444.055 " />
<polygon stroke="black" stroke-width="1" fill="rgb(32, 32, 32)" fill-opacity="0.25" points="502.377,483.329 337.189,444.055 439.955,483.329 " />
<polygon stroke="black" stroke-width="1" fill="rgb(32, 32, 32)" fill-opacity="0.25" points="717.048,688.883 708.579,678.700 502.351,678.701 502.351,688.883 " />
<polygon stroke="black" stroke-width="1" fill="rgb(32, 32, 32)" fill-opacity="0.25" points="383.667,688.884 502.351,688.883 502.351,678.701 439.928,678.701 " />
<polygon stroke="black" stroke-width="1" fill="rgb(32, 32, 32)" fill-opacity="0.25" points="439.928,678.701 383.667,678.701 383.667,688.884 " />
<polygon stroke="black" stroke-width="1" fill="rgb(32, 32, 32)" fill-opacity="0.25" points="717.048,688.883 717.048,678.700 708.579,678.700 " />
<polygon stroke="black" stroke-width="1" fill="rgb(32, 32, 32)" fill-opacity="0.25" points="311.577,444.055 297.369,483.329 351.943,483.329 337.189,444.055 " />
<polygon stroke="black" stroke-width="1" fill="rgb(32, 32, 32)" fill-opacity="0.25" points="271.699,483.329 311.577,444.055 311.577,428.552 282.934,388.383 " />
<polygon stroke="black" stroke-width="1" fill="rgb(32, 32, 32)" fill-opacity="0.25" points="285.395,384.054 282.934,388.383 311.577,428.552 " />
<polygon stroke="black" stroke-width="1" fill="rgb(32, 32, 32)" fill-opacity="0.25" points="289.870,382.179 285.395,384.054 311.577,428.552 " />
<polygon stroke="black" stroke-width="1" fill="rgb(32, 32, 32)" fill-opacity="0.25" points="383.666,567.619 351.916,554.294 351.916,585.316 " />
<polygon stroke="black" stroke-width="1" fill="rgb(32, 32, 32)" fill-opacity="0.25" points="351.916,554.294 383.666,567.619 383.666,525.971 351.916,534.906 " />
<polygon stroke="black" stroke-width="1" fill="rgb(32, 32, 32)" fill-opacity="0.25" points="351.916,635.727 351.916,604.705 297.342,604.705 297.343,635.727 " />
<polygon stroke="black" stroke-width="1" fill="rgb(32, 32, 32)" fill-opacity="0.25" points="351.916,554.294 297.342,554.294 297.342,585.316 351.916,585.316 " />
<polygon stroke="black" stroke-width="1" fill="rgb(32, 32, 32)" fill-opacity="0.25" points="271.673,758.219 297.342,604.705 297.342,585.316 271.672,483.508 " />
<polygon stroke="black" stroke-width="1" fill="rgb(32, 32, 32)" fill-opacity="0.25" points="271.672,483.508 297.342,585.316 297.342,554.294 " />
<polygon stroke="black" stroke-width="1" fill="rgb(32, 32, 32)" fill-opacity="0.25" points="297.342,604.705 271.673,758.219 297.343,635.727 " />
<polygon stroke="black" stroke-width="1" fill="rgb(32, 32, 32)" fill-opacity="0.25" points="297.343,655.116 297.343,635.727 271.673,758.219 " />
<polygon stroke="black" stroke-width="1" fill="rgb(32, 32, 32)" fill-opacity="0.25" points="311.577,444.055 271.699,483.329 297.369,483.329 " />
<polygon stroke="black" stroke-width="1" fill="rgb(32, 32, 32)" fill-opacity="0.25" points="458.177,752.725 502.351,764.406 458.177,737.060 " />
<polygon stroke="black" stroke-width="1" fill="rgb(32, 32, 32)" fill-opacity="0.25" points="273.400,762.594 277.571,764.406 431.603,752.725 271.673,758.219 " />
<polygon stroke="black" stroke-width="1" fill="rgb(32, 32, 32)" fill-opacity="0.25" points="711.472,742.766 711.472,733.411 664.878,733.411 664.878,742.766 " />
<polygon stroke="black" stroke-width="1" fill="rgb(32, 32, 32)" fill-opacity="0.25" points="711.472,717.580 711.472,733.411 733.029,758.218 " />
<polygon stroke="black" stroke-width="1" fill="rgb(32, 32, 32)" fill-opacity="0.25" points="711.472,733.411 711.472,742.766 733.029,758.218 " />
<polygon stroke="black" stroke-width="1" fill="rgb(32, 32, 32)" fill-opacity="0.25" points="711.472,742.766 711.472,758.597 733.029,758.218 " />
<polygon stroke="black" stroke-width="1" fill="rgb(32, 32, 32)" fill-opacity="0.25" points="727.131,764.405 711.472,758.597 664.878,758.597 502.351,764.406 " />
<polygon stroke="black" stroke-width="1" fill="rgb(32, 32, 32)" fill-opacity="0.25" points="502.351,688.883 513.185,737.060 539.759,737.060 " />
<polygon stroke="black" stroke-width="1" fill="rgb(32, 32, 32)" fill-opacity="0.25" points="731.302,762.593 733.029,758.218 711.472,758.597 727.131,764.405 " />
<polygon stroke="black" stroke-width="1" fill="rgb(32, 32, 32)" fill-opacity="0.25" points="594.767,737.060 621.341,737.060 664.878,692.514 502.351,688.883 " />
<polygon stroke="black" stroke-width="1" fill="rgb(32, 32, 32)" fill-opacity="0.25" points="664.878,708.345 664.878,692.514 621.341,737.060 " />
<polygon stroke="black" stroke-width="1" fill="rgb(32, 32, 32)" fill-opacity="0.25" points="664.878,717.580 664.878,708.345 621.341,737.060 " />
<polygon stroke="black" stroke-width="1" fill="rgb(32, 32, 32)" fill-opacity="0.25" points="664.878,733.411 664.878,717.580 621.341,737.060 " />
<polygon stroke="black" stroke-width="1" fill="rgb(32, 32, 32)" fill-opacity="0.25" points="664.878,742.766 664.878,733.411 621.341,737.060 " />
<polygon stroke="black" stroke-width="1" fill="rgb(32, 32, 32)" fill-opacity="0.25" points="621.341,752.724 664.878,758.597 664.878,742.766 621.341,737.060 " />
<polygon stroke="black" stroke-width="1" fill="rgb(32, 32, 32)" fill-opacity="0.25" points="711.472,717.580 733.029,758.218 711.472,708.345 " />
<polygon stroke="black" stroke-width="1" fill="rgb(32, 32, 32)" fill-opacity="0.25" points="711.472,708.345 733.029,758.218 711.472,692.514 " />
<polygon stroke="black" stroke-width="1" fill="rgb(32, 32, 32)" fill-opacity="0.25" points="717.075,483.329 719.359,384.054 714.885,382.179 708.605,483.329 " />
<polygon stroke="black" stroke-width="1" fill="rgb(32, 32, 32)" fill-opacity="0.25" points="719.359,384.054 717.075,483.329 733.056,483.329 721.820,388.383 " />

</svg>
