<?xml version="1.0" standalone="no"?>
<!DOCTYPE svg PUBLIC "-//W3C//DTD SVG 1.1//EN" 
  "http://www.w3.org/Graphics/SVG/1.1/DTD/svg11.dtd">
<svg width="1024" height="1024" viewBox="0 0 1024 1024"
     xmlns="http://www.w3.org/2000/svg" version="1.1">
<desc>TricorderMKIX_revised_1.7.blend, (Blender 2.93.5)</desc>
<polygon stroke="black" stroke-width="1" fill="rgb(0, 58, 0)" fill-opacity="0.25" points="716.476,185.056 716.476,185.056 716.476,342.909 716.476,342.909 " />
<polygon stroke="black" stroke-width="1" fill="rgb(0, 58, 0)" fill-opacity="0.25" points="360.230,342.909 360.230,342.909 312.108,342.909 312.108,342.909 " />
<polygon stroke="black" stroke-width="1" fill="rgb(0, 58, 0)" fill-opacity="0.25" points="312.108,342.909 312.108,342.909 312.108,185.056 312.108,185.056 " />
<polygon stroke="black" stroke-width="1" fill="rgb(0, 58, 0)" fill-opacity="0.25" points="668.354,185.056 668.354,185.056 716.476,185.056 716.476,185.056 " />
<polygon stroke="black" stroke-width="1" fill="rgb(0, 58, 0)" fill-opacity="0.25" points="360.230,342.909 312.108,342.909 312.108,185.056 360.230,185.056 " />
<polygon stroke="black" stroke-width="1" fill="rgb(0, 58, 0)" fill-opacity="0.25" points="668.354,342.909 716.476,342.909 716.476,185.056 668.354,185.056 " />
<polygon stroke="black" stroke-width="1" fill="rgb(0, 58, 0)" fill-opacity="0.25" points="312.108,342.909 360.230,342.909 360.230,185.056 312.108,185.056 " />
<polygon stroke="black" stroke-width="1" fill="rgb(0, 58, 0)" fill-opacity="0.25" points="360.230,342.909 668.354,342.909 668.354,185.056 360.230,185.056 " />
<polygon stroke="black" stroke-width="1" fill="rgb(0, 58, 0)" fill-opacity="0.25" points="716.476,342.909 668.354,342.909 668.354,185.056 716.476,185.056 " />
<polygon stroke="black" stroke-width="1" fill="rgb(0, 58, 0)" fill-opacity="0.25" points="668.354,342.909 360.230,342.909 360.230,185.056 668.354,185.056 " />
<polygon stroke="black" stroke-width="1" fill="rgb(0, 58, 0)" fill-opacity="0.25" points="312.108,185.056 312.108,185.056 360.230,185.056 360.230,185.056 " />
<polygon stroke="black" stroke-width="1" fill="rgb(0, 58, 0)" fill-opacity="0.25" points="668.354,185.056 668.354,185.056 668.354,159.706 668.354,159.706 " />
<polygon stroke="black" stroke-width="1" fill="rgb(0, 58, 0)" fill-opacity="0.25" points="716.476,342.909 716.476,342.909 668.354,342.909 668.354,342.909 " />
<polygon stroke="black" stroke-width="1" fill="rgb(0, 58, 0)" fill-opacity="0.25" points="668.354,342.909 668.354,342.909 360.230,342.909 360.230,342.909 " />
<polygon stroke="black" stroke-width="1" fill="rgb(0, 58, 0)" fill-opacity="0.25" points="360.230,159.706 360.230,159.706 668.354,159.706 668.354,159.706 " />
<polygon stroke="black" stroke-width="1" fill="rgb(0, 58, 0)" fill-opacity="0.25" points="360.230,185.056 668.354,185.056 668.354,159.706 360.230,159.706 " />
<polygon stroke="black" stroke-width="1" fill="rgb(0, 58, 0)" fill-opacity="0.25" points="668.354,185.056 360.230,185.056 360.230,159.706 668.354,159.706 " />
<polygon stroke="black" stroke-width="1" fill="rgb(0, 58, 0)" fill-opacity="0.25" points="360.230,185.056 360.230,185.056 360.230,159.706 360.230,159.706 " />
<polygon stroke="black" stroke-width="1" fill="rgb(204, 204, 204)" fill-opacity="0.25" points="629.540,305.883 629.540,305.874 629.540,319.028 629.540,319.038 " />
<polygon stroke="black" stroke-width="1" fill="rgb(204, 204, 204)" fill-opacity="0.25" points="629.540,319.038 629.540,319.028 616.386,319.028 616.386,319.038 " />
<polygon stroke="black" stroke-width="1" fill="rgb(204, 204, 204)" fill-opacity="0.25" points="616.386,319.038 616.386,319.028 616.386,305.874 616.386,305.883 " />
<polygon stroke="black" stroke-width="1" fill="rgb(204, 204, 204)" fill-opacity="0.25" points="616.386,305.883 616.386,305.874 629.540,305.874 629.540,305.883 " />
<polygon stroke="black" stroke-width="1" fill="rgb(204, 204, 204)" fill-opacity="0.25" points="629.540,319.038 616.386,319.038 616.386,305.883 629.540,305.883 " />
<polygon stroke="black" stroke-width="1" fill="rgb(204, 204, 204)" fill-opacity="0.25" points="629.540,305.874 616.386,305.874 616.386,319.028 629.540,319.028 " />
<polygon stroke="black" stroke-width="1" fill="rgb(204, 204, 204)" fill-opacity="0.25" points="603.506,305.883 603.506,305.874 603.506,319.028 603.506,319.038 " />
<polygon stroke="black" stroke-width="1" fill="rgb(204, 204, 204)" fill-opacity="0.25" points="603.506,319.038 603.506,319.028 590.351,319.028 590.351,319.038 " />
<polygon stroke="black" stroke-width="1" fill="rgb(204, 204, 204)" fill-opacity="0.25" points="590.351,319.038 590.351,319.028 590.351,305.874 590.351,305.883 " />
<polygon stroke="black" stroke-width="1" fill="rgb(204, 204, 204)" fill-opacity="0.25" points="590.351,305.883 590.351,305.874 603.506,305.874 603.506,305.883 " />
<polygon stroke="black" stroke-width="1" fill="rgb(204, 204, 204)" fill-opacity="0.25" points="603.506,319.038 590.351,319.038 590.351,305.883 603.506,305.883 " />
<polygon stroke="black" stroke-width="1" fill="rgb(204, 204, 204)" fill-opacity="0.25" points="603.506,305.874 590.351,305.874 590.351,319.028 603.506,319.028 " />
<polygon stroke="black" stroke-width="1" fill="rgb(204, 204, 204)" fill-opacity="0.25" points="656.285,305.883 656.285,305.874 656.285,319.028 656.285,319.038 " />
<polygon stroke="black" stroke-width="1" fill="rgb(204, 204, 204)" fill-opacity="0.25" points="656.285,319.038 656.285,319.028 643.130,319.028 643.130,319.038 " />
<polygon stroke="black" stroke-width="1" fill="rgb(204, 204, 204)" fill-opacity="0.25" points="643.130,319.038 643.130,319.028 643.130,305.874 643.130,305.883 " />
<polygon stroke="black" stroke-width="1" fill="rgb(204, 204, 204)" fill-opacity="0.25" points="643.130,305.883 643.130,305.874 656.285,305.874 656.285,305.883 " />
<polygon stroke="black" stroke-width="1" fill="rgb(204, 204, 204)" fill-opacity="0.25" points="656.285,319.038 643.130,319.038 643.130,305.883 656.285,305.883 " />
<polygon stroke="black" stroke-width="1" fill="rgb(204, 204, 204)" fill-opacity="0.25" points="656.285,305.874 643.130,305.874 643.130,319.028 656.285,319.028 " />
<polygon stroke="black" stroke-width="1" fill="rgb(204, 204, 204)" fill-opacity="0.25" points="554.253,310.877 554.253,310.867 554.253,324.022 554.253,324.032 " />
<polygon stroke="black" stroke-width="1" fill="rgb(204, 204, 204)" fill-opacity="0.25" points="554.253,324.032 554.253,324.022 541.099,324.022 541.099,324.032 " />
<polygon stroke="black" stroke-width="1" fill="rgb(204, 204, 204)" fill-opacity="0.25" points="541.099,324.032 541.099,324.022 541.099,310.867 541.099,310.877 " />
<polygon stroke="black" stroke-width="1" fill="rgb(204, 204, 204)" fill-opacity="0.25" points="541.099,310.877 541.099,310.867 554.253,310.867 554.253,310.877 " />
<polygon stroke="black" stroke-width="1" fill="rgb(204, 204, 204)" fill-opacity="0.25" points="554.253,324.032 541.099,324.032 541.099,310.877 554.253,310.877 " />
<polygon stroke="black" stroke-width="1" fill="rgb(204, 204, 204)" fill-opacity="0.25" points="554.253,310.867 541.099,310.867 541.099,324.022 554.253,324.022 " />
<polygon stroke="black" stroke-width="1" fill="rgb(204, 204, 204)" fill-opacity="0.25" points="520.053,310.877 520.053,310.867 520.053,324.022 520.053,324.032 " />
<polygon stroke="black" stroke-width="1" fill="rgb(204, 204, 204)" fill-opacity="0.25" points="520.053,324.032 520.053,324.022 506.899,324.022 506.899,324.032 " />
<polygon stroke="black" stroke-width="1" fill="rgb(204, 204, 204)" fill-opacity="0.25" points="506.899,324.032 506.899,324.022 506.899,310.867 506.899,310.877 " />
<polygon stroke="black" stroke-width="1" fill="rgb(204, 204, 204)" fill-opacity="0.25" points="506.899,310.877 506.899,310.867 520.053,310.867 520.053,310.877 " />
<polygon stroke="black" stroke-width="1" fill="rgb(204, 204, 204)" fill-opacity="0.25" points="520.053,324.032 506.899,324.032 506.899,310.877 520.053,310.877 " />
<polygon stroke="black" stroke-width="1" fill="rgb(204, 204, 204)" fill-opacity="0.25" points="520.053,310.867 506.899,310.867 506.899,324.022 520.053,324.022 " />
<polygon stroke="black" stroke-width="1" fill="rgb(204, 204, 204)" fill-opacity="0.25" points="464.879,317.555 464.879,317.545 464.879,330.700 464.879,330.709 " />
<polygon stroke="black" stroke-width="1" fill="rgb(204, 204, 204)" fill-opacity="0.25" points="464.879,330.709 464.879,330.700 451.724,330.700 451.724,330.709 " />
<polygon stroke="black" stroke-width="1" fill="rgb(204, 204, 204)" fill-opacity="0.25" points="451.724,330.709 451.724,330.700 451.724,317.545 451.724,317.555 " />
<polygon stroke="black" stroke-width="1" fill="rgb(204, 204, 204)" fill-opacity="0.25" points="451.724,317.555 451.724,317.545 464.879,317.545 464.879,317.555 " />
<polygon stroke="black" stroke-width="1" fill="rgb(204, 204, 204)" fill-opacity="0.25" points="464.879,330.709 451.724,330.709 451.724,317.555 464.879,317.555 " />
<polygon stroke="black" stroke-width="1" fill="rgb(204, 204, 204)" fill-opacity="0.25" points="464.879,317.545 451.724,317.545 451.724,330.700 464.879,330.700 " />
<polygon stroke="black" stroke-width="1" fill="rgb(204, 204, 204)" fill-opacity="0.25" points="465.016,287.467 465.016,287.457 465.016,300.611 465.016,300.621 " />
<polygon stroke="black" stroke-width="1" fill="rgb(204, 204, 204)" fill-opacity="0.25" points="465.016,300.621 465.016,300.611 451.861,300.611 451.861,300.621 " />
<polygon stroke="black" stroke-width="1" fill="rgb(204, 204, 204)" fill-opacity="0.25" points="451.861,300.621 451.861,300.611 451.861,287.457 451.861,287.467 " />
<polygon stroke="black" stroke-width="1" fill="rgb(204, 204, 204)" fill-opacity="0.25" points="451.861,287.467 451.861,287.457 465.016,287.457 465.016,287.467 " />
<polygon stroke="black" stroke-width="1" fill="rgb(204, 204, 204)" fill-opacity="0.25" points="465.016,300.621 451.861,300.621 451.861,287.467 465.016,287.467 " />
<polygon stroke="black" stroke-width="1" fill="rgb(204, 204, 204)" fill-opacity="0.25" points="465.016,287.457 451.861,287.457 451.861,300.611 465.016,300.611 " />
<polygon stroke="black" stroke-width="1" fill="rgb(204, 204, 204)" fill-opacity="0.25" points="415.040,310.299 415.040,310.289 415.040,323.443 415.040,323.453 " />
<polygon stroke="black" stroke-width="1" fill="rgb(204, 204, 204)" fill-opacity="0.25" points="415.040,323.453 415.040,323.443 401.885,323.443 401.885,323.453 " />
<polygon stroke="black" stroke-width="1" fill="rgb(204, 204, 204)" fill-opacity="0.25" points="401.885,323.453 401.885,323.443 401.885,310.289 401.885,310.299 " />
<polygon stroke="black" stroke-width="1" fill="rgb(204, 204, 204)" fill-opacity="0.25" points="401.885,310.299 401.885,310.289 415.040,310.289 415.040,310.299 " />
<polygon stroke="black" stroke-width="1" fill="rgb(204, 204, 204)" fill-opacity="0.25" points="415.040,323.453 401.885,323.453 401.885,310.299 415.040,310.299 " />
<polygon stroke="black" stroke-width="1" fill="rgb(204, 204, 204)" fill-opacity="0.25" points="415.040,310.289 401.885,310.289 401.885,323.443 415.040,323.443 " />
<polygon stroke="black" stroke-width="1" fill="rgb(204, 204, 204)" fill-opacity="0.25" points="387.112,263.673 387.112,263.663 387.112,276.818 387.112,276.828 " />
<polygon stroke="black" stroke-width="1" fill="rgb(204, 204, 204)" fill-opacity="0.25" points="387.112,276.828 387.112,276.818 373.957,276.818 373.957,276.828 " />
<polygon stroke="black" stroke-width="1" fill="rgb(204, 204, 204)" fill-opacity="0.25" points="373.957,276.828 373.957,276.818 373.957,263.663 373.957,263.673 " />
<polygon stroke="black" stroke-width="1" fill="rgb(204, 204, 204)" fill-opacity="0.25" points="373.957,263.673 373.957,263.663 387.112,263.663 387.112,263.673 " />
<polygon stroke="black" stroke-width="1" fill="rgb(204, 204, 204)" fill-opacity="0.25" points="387.112,276.828 373.957,276.828 373.957,263.673 387.112,263.673 " />
<polygon stroke="black" stroke-width="1" fill="rgb(204, 204, 204)" fill-opacity="0.25" points="387.112,263.663 373.957,263.663 373.957,276.818 387.112,276.818 " />
<polygon stroke="black" stroke-width="1" fill="rgb(204, 204, 204)" fill-opacity="0.25" points="425.259,263.673 425.259,263.663 425.259,276.818 425.259,276.828 " />
<polygon stroke="black" stroke-width="1" fill="rgb(204, 204, 204)" fill-opacity="0.25" points="425.259,276.828 425.259,276.818 412.105,276.818 412.105,276.828 " />
<polygon stroke="black" stroke-width="1" fill="rgb(204, 204, 204)" fill-opacity="0.25" points="412.105,276.828 412.105,276.818 412.105,263.663 412.105,263.673 " />
<polygon stroke="black" stroke-width="1" fill="rgb(204, 204, 204)" fill-opacity="0.25" points="412.105,263.673 412.105,263.663 425.259,263.663 425.259,263.673 " />
<polygon stroke="black" stroke-width="1" fill="rgb(204, 204, 204)" fill-opacity="0.25" points="425.259,276.828 412.105,276.828 412.105,263.673 425.259,263.673 " />
<polygon stroke="black" stroke-width="1" fill="rgb(204, 204, 204)" fill-opacity="0.25" points="425.259,263.663 412.105,263.663 412.105,276.818 425.259,276.818 " />
<polygon stroke="black" stroke-width="1" fill="rgb(204, 204, 204)" fill-opacity="0.25" points="463.407,263.673 463.407,263.663 463.407,276.818 463.407,276.828 " />
<polygon stroke="black" stroke-width="1" fill="rgb(204, 204, 204)" fill-opacity="0.25" points="463.407,276.828 463.407,276.818 450.253,276.818 450.253,276.828 " />
<polygon stroke="black" stroke-width="1" fill="rgb(204, 204, 204)" fill-opacity="0.25" points="450.253,276.828 450.253,276.818 450.253,263.663 450.253,263.673 " />
<polygon stroke="black" stroke-width="1" fill="rgb(204, 204, 204)" fill-opacity="0.25" points="450.253,263.673 450.253,263.663 463.407,263.663 463.407,263.673 " />
<polygon stroke="black" stroke-width="1" fill="rgb(204, 204, 204)" fill-opacity="0.25" points="463.407,276.828 450.253,276.828 450.253,263.673 463.407,263.673 " />
<polygon stroke="black" stroke-width="1" fill="rgb(204, 204, 204)" fill-opacity="0.25" points="463.407,263.663 450.253,263.663 450.253,276.818 463.407,276.818 " />
<polygon stroke="black" stroke-width="1" fill="rgb(204, 204, 204)" fill-opacity="0.25" points="501.555,263.673 501.555,263.663 501.555,276.818 501.555,276.828 " />
<polygon stroke="black" stroke-width="1" fill="rgb(204, 204, 204)" fill-opacity="0.25" points="501.555,276.828 501.555,276.818 488.400,276.818 488.400,276.828 " />
<polygon stroke="black" stroke-width="1" fill="rgb(204, 204, 204)" fill-opacity="0.25" points="488.400,276.828 488.400,276.818 488.400,263.663 488.400,263.673 " />
<polygon stroke="black" stroke-width="1" fill="rgb(204, 204, 204)" fill-opacity="0.25" points="488.400,263.673 488.400,263.663 501.555,263.663 501.555,263.673 " />
<polygon stroke="black" stroke-width="1" fill="rgb(204, 204, 204)" fill-opacity="0.25" points="501.555,276.828 488.400,276.828 488.400,263.673 501.555,263.673 " />
<polygon stroke="black" stroke-width="1" fill="rgb(204, 204, 204)" fill-opacity="0.25" points="501.555,263.663 488.400,263.663 488.400,276.818 501.555,276.818 " />
<polygon stroke="black" stroke-width="1" fill="rgb(204, 204, 204)" fill-opacity="0.25" points="539.703,263.673 539.703,263.663 539.703,276.818 539.703,276.828 " />
<polygon stroke="black" stroke-width="1" fill="rgb(204, 204, 204)" fill-opacity="0.25" points="539.703,276.828 539.703,276.818 526.548,276.818 526.548,276.828 " />
<polygon stroke="black" stroke-width="1" fill="rgb(204, 204, 204)" fill-opacity="0.25" points="526.548,276.828 526.548,276.818 526.548,263.663 526.548,263.673 " />
<polygon stroke="black" stroke-width="1" fill="rgb(204, 204, 204)" fill-opacity="0.25" points="526.548,263.673 526.548,263.663 539.703,263.663 539.703,263.673 " />
<polygon stroke="black" stroke-width="1" fill="rgb(204, 204, 204)" fill-opacity="0.25" points="539.703,276.828 526.548,276.828 526.548,263.673 539.703,263.673 " />
<polygon stroke="black" stroke-width="1" fill="rgb(204, 204, 204)" fill-opacity="0.25" points="539.703,263.663 526.548,263.663 526.548,276.818 539.703,276.818 " />
<polygon stroke="black" stroke-width="1" fill="rgb(204, 204, 204)" fill-opacity="0.25" points="577.850,263.673 577.850,263.663 577.850,276.818 577.850,276.828 " />
<polygon stroke="black" stroke-width="1" fill="rgb(204, 204, 204)" fill-opacity="0.25" points="577.850,276.828 577.850,276.818 564.696,276.818 564.696,276.828 " />
<polygon stroke="black" stroke-width="1" fill="rgb(204, 204, 204)" fill-opacity="0.25" points="564.696,276.828 564.696,276.818 564.696,263.663 564.696,263.673 " />
<polygon stroke="black" stroke-width="1" fill="rgb(204, 204, 204)" fill-opacity="0.25" points="564.696,263.673 564.696,263.663 577.850,263.663 577.850,263.673 " />
<polygon stroke="black" stroke-width="1" fill="rgb(204, 204, 204)" fill-opacity="0.25" points="577.850,276.828 564.696,276.828 564.696,263.673 577.850,263.673 " />
<polygon stroke="black" stroke-width="1" fill="rgb(204, 204, 204)" fill-opacity="0.25" points="577.850,263.663 564.696,263.663 564.696,276.818 577.850,276.818 " />
<polygon stroke="black" stroke-width="1" fill="rgb(204, 204, 204)" fill-opacity="0.25" points="615.998,263.673 615.998,263.663 615.998,276.818 615.998,276.828 " />
<polygon stroke="black" stroke-width="1" fill="rgb(204, 204, 204)" fill-opacity="0.25" points="615.998,276.828 615.998,276.818 602.844,276.818 602.844,276.828 " />
<polygon stroke="black" stroke-width="1" fill="rgb(204, 204, 204)" fill-opacity="0.25" points="602.844,276.828 602.844,276.818 602.844,263.663 602.844,263.673 " />
<polygon stroke="black" stroke-width="1" fill="rgb(204, 204, 204)" fill-opacity="0.25" points="602.844,263.673 602.844,263.663 615.998,263.663 615.998,263.673 " />
<polygon stroke="black" stroke-width="1" fill="rgb(204, 204, 204)" fill-opacity="0.25" points="615.998,276.828 602.844,276.828 602.844,263.673 615.998,263.673 " />
<polygon stroke="black" stroke-width="1" fill="rgb(204, 204, 204)" fill-opacity="0.25" points="615.998,263.663 602.844,263.663 602.844,276.818 615.998,276.818 " />
<polygon stroke="black" stroke-width="1" fill="rgb(204, 204, 204)" fill-opacity="0.25" points="654.146,263.673 654.146,263.663 654.146,276.818 654.146,276.828 " />
<polygon stroke="black" stroke-width="1" fill="rgb(204, 204, 204)" fill-opacity="0.25" points="654.146,276.828 654.146,276.818 640.991,276.818 640.991,276.828 " />
<polygon stroke="black" stroke-width="1" fill="rgb(204, 204, 204)" fill-opacity="0.25" points="640.991,276.828 640.991,276.818 640.991,263.663 640.991,263.673 " />
<polygon stroke="black" stroke-width="1" fill="rgb(204, 204, 204)" fill-opacity="0.25" points="640.991,263.673 640.991,263.663 654.146,263.663 654.146,263.673 " />
<polygon stroke="black" stroke-width="1" fill="rgb(204, 204, 204)" fill-opacity="0.25" points="654.146,276.828 640.991,276.828 640.991,263.673 654.146,263.673 " />
<polygon stroke="black" stroke-width="1" fill="rgb(204, 204, 204)" fill-opacity="0.25" points="654.146,263.663 640.991,263.663 640.991,276.818 654.146,276.818 " />
<polygon stroke="black" stroke-width="1" fill="rgb(204, 204, 204)" fill-opacity="0.25" points="514.633,215.391 514.633,215.381 514.633,228.535 514.633,228.545 " />
<polygon stroke="black" stroke-width="1" fill="rgb(204, 204, 204)" fill-opacity="0.25" points="514.633,228.545 514.633,228.535 501.479,228.535 501.479,228.545 " />
<polygon stroke="black" stroke-width="1" fill="rgb(204, 204, 204)" fill-opacity="0.25" points="501.479,228.545 501.479,228.535 501.479,215.381 501.479,215.391 " />
<polygon stroke="black" stroke-width="1" fill="rgb(204, 204, 204)" fill-opacity="0.25" points="501.479,215.391 501.479,215.381 514.633,215.381 514.633,215.391 " />
<polygon stroke="black" stroke-width="1" fill="rgb(204, 204, 204)" fill-opacity="0.25" points="514.633,228.545 501.479,228.545 501.479,215.391 514.633,215.391 " />
<polygon stroke="black" stroke-width="1" fill="rgb(204, 204, 204)" fill-opacity="0.25" points="514.633,215.381 501.479,215.381 501.479,228.535 514.633,228.535 " />
<polygon stroke="black" stroke-width="1" fill="rgb(204, 204, 204)" fill-opacity="0.25" points="560.674,215.391 560.674,215.381 560.674,228.535 560.674,228.545 " />
<polygon stroke="black" stroke-width="1" fill="rgb(204, 204, 204)" fill-opacity="0.25" points="560.674,228.545 560.674,228.535 547.519,228.535 547.519,228.545 " />
<polygon stroke="black" stroke-width="1" fill="rgb(204, 204, 204)" fill-opacity="0.25" points="547.519,228.545 547.519,228.535 547.519,215.381 547.519,215.391 " />
<polygon stroke="black" stroke-width="1" fill="rgb(204, 204, 204)" fill-opacity="0.25" points="547.519,215.391 547.519,215.381 560.674,215.381 560.674,215.391 " />
<polygon stroke="black" stroke-width="1" fill="rgb(204, 204, 204)" fill-opacity="0.25" points="560.674,228.545 547.519,228.545 547.519,215.391 560.674,215.391 " />
<polygon stroke="black" stroke-width="1" fill="rgb(204, 204, 204)" fill-opacity="0.25" points="560.674,215.381 547.519,215.381 547.519,228.535 560.674,228.535 " />
<polygon stroke="black" stroke-width="1" fill="rgb(204, 204, 204)" fill-opacity="0.25" points="606.714,215.391 606.714,215.381 606.714,228.535 606.714,228.545 " />
<polygon stroke="black" stroke-width="1" fill="rgb(204, 204, 204)" fill-opacity="0.25" points="606.714,228.545 606.714,228.535 593.560,228.535 593.560,228.545 " />
<polygon stroke="black" stroke-width="1" fill="rgb(204, 204, 204)" fill-opacity="0.25" points="593.560,228.545 593.560,228.535 593.560,215.381 593.560,215.391 " />
<polygon stroke="black" stroke-width="1" fill="rgb(204, 204, 204)" fill-opacity="0.25" points="593.560,215.391 593.560,215.381 606.714,215.381 606.714,215.391 " />
<polygon stroke="black" stroke-width="1" fill="rgb(204, 204, 204)" fill-opacity="0.25" points="606.714,228.545 593.560,228.545 593.560,215.391 606.714,215.391 " />
<polygon stroke="black" stroke-width="1" fill="rgb(204, 204, 204)" fill-opacity="0.25" points="606.714,215.381 593.560,215.381 593.560,228.535 606.714,228.535 " />
<polygon stroke="black" stroke-width="1" fill="rgb(204, 204, 204)" fill-opacity="0.25" points="652.755,215.391 652.755,215.381 652.755,228.535 652.755,228.545 " />
<polygon stroke="black" stroke-width="1" fill="rgb(204, 204, 204)" fill-opacity="0.25" points="652.755,228.545 652.755,228.535 639.600,228.535 639.600,228.545 " />
<polygon stroke="black" stroke-width="1" fill="rgb(204, 204, 204)" fill-opacity="0.25" points="639.600,228.545 639.600,228.535 639.600,215.381 639.600,215.391 " />
<polygon stroke="black" stroke-width="1" fill="rgb(204, 204, 204)" fill-opacity="0.25" points="639.600,215.391 639.600,215.381 652.755,215.381 652.755,215.391 " />
<polygon stroke="black" stroke-width="1" fill="rgb(204, 204, 204)" fill-opacity="0.25" points="652.755,228.545 639.600,228.545 639.600,215.391 652.755,215.391 " />
<polygon stroke="black" stroke-width="1" fill="rgb(204, 204, 204)" fill-opacity="0.25" points="652.755,215.381 639.600,215.381 639.600,228.535 652.755,228.535 " />
<polygon stroke="black" stroke-width="1" fill="rgb(204, 204, 204)" fill-opacity="0.25" points="387.638,219.914 387.638,219.904 387.638,233.059 387.638,233.069 " />
<polygon stroke="black" stroke-width="1" fill="rgb(204, 204, 204)" fill-opacity="0.25" points="387.638,233.069 387.638,233.059 374.484,233.059 374.484,233.069 " />
<polygon stroke="black" stroke-width="1" fill="rgb(204, 204, 204)" fill-opacity="0.25" points="374.484,233.069 374.484,233.059 374.484,219.904 374.484,219.914 " />
<polygon stroke="black" stroke-width="1" fill="rgb(204, 204, 204)" fill-opacity="0.25" points="374.484,219.914 374.484,219.904 387.638,219.904 387.638,219.914 " />
<polygon stroke="black" stroke-width="1" fill="rgb(204, 204, 204)" fill-opacity="0.25" points="387.638,233.069 374.484,233.069 374.484,219.914 387.638,219.914 " />
<polygon stroke="black" stroke-width="1" fill="rgb(204, 204, 204)" fill-opacity="0.25" points="387.638,219.904 374.484,219.904 374.484,233.059 387.638,233.059 " />

</svg>
